solid 
   facet normal 1.000000e+00 0.000000e+00 0.000000e+00
      outer loop
         vertex 3.167708e+01 1.500000e+01 3.000000e+00
         vertex 3.167708e+01 1.500000e+01 0.000000e+00
         vertex 3.167708e+01 5.332292e+01 0.000000e+00
      endloop
   endfacet
   facet normal 1.000000e+00 -0.000000e+00 0.000000e+00
      outer loop
         vertex 3.167708e+01 5.332292e+01 3.000000e+00
         vertex 3.167708e+01 1.500000e+01 3.000000e+00
         vertex 3.167708e+01 5.332292e+01 0.000000e+00
      endloop
   endfacet
   facet normal 7.071067e-01 7.071068e-01 -0.000000e+00
      outer loop
         vertex 3.167708e+01 5.332292e+01 3.000000e+00
         vertex 3.167708e+01 5.332292e+01 0.000000e+00
         vertex 1.500000e+01 7.000000e+01 0.000000e+00
      endloop
   endfacet
   facet normal 7.071067e-01 7.071068e-01 0.000000e+00
      outer loop
         vertex 1.500000e+01 7.000000e+01 3.000000e+00
         vertex 3.167708e+01 5.332292e+01 3.000000e+00
         vertex 1.500000e+01 7.000000e+01 0.000000e+00
      endloop
   endfacet
   facet normal 0.000000e+00 1.000000e+00 -0.000000e+00
      outer loop
         vertex 1.500000e+01 7.000000e+01 3.000000e+00
         vertex 1.500000e+01 7.000000e+01 0.000000e+00
         vertex -5.000000e+01 7.000000e+01 0.000000e+00
      endloop
   endfacet
   facet normal 0.000000e+00 1.000000e+00 0.000000e+00
      outer loop
         vertex -5.000000e+01 7.000000e+01 3.000000e+00
         vertex 1.500000e+01 7.000000e+01 3.000000e+00
         vertex -5.000000e+01 7.000000e+01 0.000000e+00
      endloop
   endfacet
   facet normal -7.071067e-01 7.071068e-01 0.000000e+00
      outer loop
         vertex -5.000000e+01 7.000000e+01 3.000000e+00
         vertex -5.000000e+01 7.000000e+01 0.000000e+00
         vertex -8.181981e+01 3.818019e+01 0.000000e+00
      endloop
   endfacet
   facet normal -7.071067e-01 7.071068e-01 0.000000e+00
      outer loop
         vertex -8.181981e+01 3.818019e+01 3.000000e+00
         vertex -5.000000e+01 7.000000e+01 3.000000e+00
         vertex -8.181981e+01 3.818019e+01 0.000000e+00
      endloop
   endfacet
   facet normal -1.000000e+00 0.000000e+00 0.000000e+00
      outer loop
         vertex -8.181981e+01 3.818019e+01 3.000000e+00
         vertex -8.181981e+01 3.818019e+01 0.000000e+00
         vertex -8.181981e+01 1.002004e-14 0.000000e+00
      endloop
   endfacet
   facet normal -1.000000e+00 -0.000000e+00 0.000000e+00
      outer loop
         vertex -8.181981e+01 1.002004e-14 3.000000e+00
         vertex -8.181981e+01 3.818019e+01 3.000000e+00
         vertex -8.181981e+01 1.002004e-14 0.000000e+00
      endloop
   endfacet
   facet normal -1.224647e-16 -1.000000e+00 0.000000e+00
      outer loop
         vertex -8.181981e+01 1.002004e-14 3.000000e+00
         vertex -8.181981e+01 1.002004e-14 0.000000e+00
         vertex 0.000000e+00 0.000000e+00 0.000000e+00
      endloop
   endfacet
   facet normal -1.224647e-16 -1.000000e+00 0.000000e+00
      outer loop
         vertex 0.000000e+00 0.000000e+00 3.000000e+00
         vertex -8.181981e+01 1.002004e-14 3.000000e+00
         vertex 0.000000e+00 0.000000e+00 0.000000e+00
      endloop
   endfacet
   facet normal 1.000000e+00 -1.224647e-16 0.000000e+00
      outer loop
         vertex 0.000000e+00 0.000000e+00 3.000000e+00
         vertex 0.000000e+00 0.000000e+00 0.000000e+00
         vertex 1.619148e-15 1.322135e+01 0.000000e+00
      endloop
   endfacet
   facet normal 1.000000e+00 -1.224647e-16 0.000000e+00
      outer loop
         vertex 1.619148e-15 1.322135e+01 3.000000e+00
         vertex 0.000000e+00 0.000000e+00 3.000000e+00
         vertex 1.619148e-15 1.322135e+01 0.000000e+00
      endloop
   endfacet
   facet normal 5.765214e-01 -8.170821e-01 0.000000e+00
      outer loop
         vertex 1.619148e-15 1.322135e+01 3.000000e+00
         vertex 1.619148e-15 1.322135e+01 0.000000e+00
         vertex 1.500000e+01 2.380513e+01 0.000000e+00
      endloop
   endfacet
   facet normal 5.765214e-01 -8.170821e-01 0.000000e+00
      outer loop
         vertex 1.500000e+01 2.380513e+01 3.000000e+00
         vertex 1.619148e-15 1.322135e+01 3.000000e+00
         vertex 1.500000e+01 2.380513e+01 0.000000e+00
      endloop
   endfacet
   facet normal -1.000000e+00 0.000000e+00 0.000000e+00
      outer loop
         vertex 1.500000e+01 2.380513e+01 3.000000e+00
         vertex 1.500000e+01 2.380513e+01 0.000000e+00
         vertex 1.500000e+01 1.500000e+01 0.000000e+00
      endloop
   endfacet
   facet normal -1.000000e+00 -0.000000e+00 0.000000e+00
      outer loop
         vertex 1.500000e+01 1.500000e+01 3.000000e+00
         vertex 1.500000e+01 2.380513e+01 3.000000e+00
         vertex 1.500000e+01 1.500000e+01 0.000000e+00
      endloop
   endfacet
   facet normal 0.000000e+00 -1.000000e+00 0.000000e+00
      outer loop
         vertex 1.500000e+01 1.500000e+01 3.000000e+00
         vertex 1.500000e+01 1.500000e+01 0.000000e+00
         vertex 3.167708e+01 1.500000e+01 0.000000e+00
      endloop
   endfacet
   facet normal 0.000000e+00 -1.000000e+00 0.000000e+00
      outer loop
         vertex 3.167708e+01 1.500000e+01 3.000000e+00
         vertex 1.500000e+01 1.500000e+01 3.000000e+00
         vertex 3.167708e+01 1.500000e+01 0.000000e+00
      endloop
   endfacet
   facet normal 0.000000e+00 0.000000e+00 1.000000e+00
      outer loop
         vertex 1.500000e+01 1.500000e+01 3.000000e+00
         vertex 3.167708e+01 1.500000e+01 3.000000e+00
         vertex 1.500000e+01 2.380513e+01 3.000000e+00
      endloop
   endfacet
   facet normal 0.000000e+00 0.000000e+00 1.000000e+00
      outer loop
         vertex 3.167708e+01 5.332292e+01 3.000000e+00
         vertex 1.500000e+01 7.000000e+01 3.000000e+00
         vertex 1.500000e+01 2.380513e+01 3.000000e+00
      endloop
   endfacet
   facet normal -0.000000e+00 0.000000e+00 1.000000e+00
      outer loop
         vertex -5.000000e+01 7.000000e+01 3.000000e+00
         vertex -8.181981e+01 3.818019e+01 3.000000e+00
         vertex 1.619148e-15 1.322135e+01 3.000000e+00
      endloop
   endfacet
   facet normal 0.000000e+00 -0.000000e+00 1.000000e+00
      outer loop
         vertex -8.181981e+01 1.002004e-14 3.000000e+00
         vertex 0.000000e+00 0.000000e+00 3.000000e+00
         vertex 1.619148e-15 1.322135e+01 3.000000e+00
      endloop
   endfacet
   facet normal 0.000000e+00 -0.000000e+00 1.000000e+00
      outer loop
         vertex 1.500000e+01 2.380513e+01 3.000000e+00
         vertex 3.167708e+01 1.500000e+01 3.000000e+00
         vertex 3.167708e+01 5.332292e+01 3.000000e+00
      endloop
   endfacet
   facet normal 0.000000e+00 0.000000e+00 1.000000e+00
      outer loop
         vertex 1.619148e-15 1.322135e+01 3.000000e+00
         vertex -8.181981e+01 3.818019e+01 3.000000e+00
         vertex -8.181981e+01 1.002004e-14 3.000000e+00
      endloop
   endfacet
   facet normal -0.000000e+00 0.000000e+00 1.000000e+00
      outer loop
         vertex 1.500000e+01 7.000000e+01 3.000000e+00
         vertex -5.000000e+01 7.000000e+01 3.000000e+00
         vertex 1.619148e-15 1.322135e+01 3.000000e+00
      endloop
   endfacet
   facet normal 0.000000e+00 0.000000e+00 1.000000e+00
      outer loop
         vertex 1.500000e+01 2.380513e+01 3.000000e+00
         vertex 1.500000e+01 7.000000e+01 3.000000e+00
         vertex 1.619148e-15 1.322135e+01 3.000000e+00
      endloop
   endfacet
   facet normal 0.000000e+00 -0.000000e+00 -1.000000e+00
      outer loop
         vertex 1.500000e+01 2.380513e+01 0.000000e+00
         vertex 3.167708e+01 5.332292e+01 0.000000e+00
         vertex 3.167708e+01 1.500000e+01 0.000000e+00
      endloop
   endfacet
   facet normal 0.000000e+00 0.000000e+00 -1.000000e+00
      outer loop
         vertex 1.619148e-15 1.322135e+01 0.000000e+00
         vertex -5.000000e+01 7.000000e+01 0.000000e+00
         vertex 1.500000e+01 7.000000e+01 0.000000e+00
      endloop
   endfacet
   facet normal 0.000000e+00 0.000000e+00 -1.000000e+00
      outer loop
         vertex 1.619148e-15 1.322135e+01 0.000000e+00
         vertex -8.181981e+01 1.002004e-14 0.000000e+00
         vertex -8.181981e+01 3.818019e+01 0.000000e+00
      endloop
   endfacet
   facet normal 0.000000e+00 0.000000e+00 -1.000000e+00
      outer loop
         vertex -8.181981e+01 1.002004e-14 0.000000e+00
         vertex 1.619148e-15 1.322135e+01 0.000000e+00
         vertex 0.000000e+00 0.000000e+00 0.000000e+00
      endloop
   endfacet
   facet normal 0.000000e+00 0.000000e+00 -1.000000e+00
      outer loop
         vertex 1.500000e+01 2.380513e+01 0.000000e+00
         vertex 3.167708e+01 1.500000e+01 0.000000e+00
         vertex 1.500000e+01 1.500000e+01 0.000000e+00
      endloop
   endfacet
   facet normal 0.000000e+00 -0.000000e+00 -1.000000e+00
      outer loop
         vertex -8.181981e+01 3.818019e+01 0.000000e+00
         vertex -5.000000e+01 7.000000e+01 0.000000e+00
         vertex 1.619148e-15 1.322135e+01 0.000000e+00
      endloop
   endfacet
   facet normal 0.000000e+00 0.000000e+00 -1.000000e+00
      outer loop
         vertex 1.500000e+01 2.380513e+01 0.000000e+00
         vertex 1.500000e+01 7.000000e+01 0.000000e+00
         vertex 3.167708e+01 5.332292e+01 0.000000e+00
      endloop
   endfacet
   facet normal 0.000000e+00 0.000000e+00 -1.000000e+00
      outer loop
         vertex 1.500000e+01 2.380513e+01 0.000000e+00
         vertex 1.619148e-15 1.322135e+01 0.000000e+00
         vertex 1.500000e+01 7.000000e+01 0.000000e+00
      endloop
   endfacet
endsolid
