solid 
   facet normal 0.000000e+00 0.000000e+00 -1.000000e+00
      outer loop
         vertex -5.447659e-01 -3.948165e+00 0.000000e+00
         vertex 1.735535e+00 -3.603875e+00 0.000000e+00
         vertex 4.249243e-10 -4.000000e+00 0.000000e+00
      endloop
   endfacet
   facet normal 0.000000e+00 0.000000e+00 -1.000000e+00
      outer loop
         vertex -5.447659e-01 -3.948165e+00 0.000000e+00
         vertex 3.899712e+00 -8.900837e-01 0.000000e+00
         vertex 3.127326e+00 -2.493959e+00 0.000000e+00
      endloop
   endfacet
   facet normal 0.000000e+00 -0.000000e+00 -1.000000e+00
      outer loop
         vertex -5.447659e-01 -3.948165e+00 0.000000e+00
         vertex 3.127326e+00 2.493959e+00 0.000000e+00
         vertex 3.899712e+00 8.900837e-01 0.000000e+00
      endloop
   endfacet
   facet normal 0.000000e+00 -0.000000e+00 -1.000000e+00
      outer loop
         vertex -5.447659e-01 -3.948165e+00 0.000000e+00
         vertex 1.224647e-15 4.000000e+00 0.000000e+00
         vertex 1.735535e+00 3.603875e+00 0.000000e+00
      endloop
   endfacet
   facet normal 0.000000e+00 0.000000e+00 -1.000000e+00
      outer loop
         vertex -2.053158e+00 -3.564351e+00 0.000000e+00
         vertex -2.440696e+00 3.425697e+00 0.000000e+00
         vertex -1.646945e+00 3.695973e+00 0.000000e+00
      endloop
   endfacet
   facet normal 0.000000e+00 0.000000e+00 -1.000000e+00
      outer loop
         vertex -2.881497e+00 -3.258043e+00 0.000000e+00
         vertex -3.031999e+00 3.199508e+00 0.000000e+00
         vertex -2.834638e+00 3.276182e+00 0.000000e+00
      endloop
   endfacet
   facet normal 0.000000e+00 0.000000e+00 -1.000000e+00
      outer loop
         vertex -3.228461e+00 -3.122818e+00 0.000000e+00
         vertex -3.395338e+00 3.057842e+00 0.000000e+00
         vertex -3.190040e+00 3.137815e+00 0.000000e+00
      endloop
   endfacet
   facet normal 0.000000e+00 0.000000e+00 -1.000000e+00
      outer loop
         vertex -3.655583e+00 -2.957728e+00 0.000000e+00
         vertex -3.747835e+00 2.922816e+00 0.000000e+00
         vertex -3.554327e+00 2.996435e+00 0.000000e+00
      endloop
   endfacet
   facet normal 0.000000e+00 0.000000e+00 -1.000000e+00
      outer loop
         vertex -3.701695e+00 -2.940231e+00 0.000000e+00
         vertex -3.985012e+00 2.834846e+00 0.000000e+00
         vertex -3.826809e+00 2.893229e+00 0.000000e+00
      endloop
   endfacet
   facet normal 0.000000e+00 -0.000000e+00 -1.000000e+00
      outer loop
         vertex -6.522789e+00 2.604723e-01 0.000000e+00
         vertex -4.941935e+00 2.511857e+00 0.000000e+00
         vertex -4.302474e+00 2.721589e+00 0.000000e+00
      endloop
   endfacet
   facet normal 0.000000e+00 0.000000e+00 -1.000000e+00
      outer loop
         vertex -7.035819e+00 1.149067e+00 0.000000e+00
         vertex -8.000000e+00 2.000000e+00 0.000000e+00
         vertex -6.241444e+00 2.181546e+00 0.000000e+00
      endloop
   endfacet
   facet normal 0.000000e+00 0.000000e+00 -1.000000e+00
      outer loop
         vertex -8.964181e+00 1.149067e+00 0.000000e+00
         vertex -9.902113e+00 6.180340e-01 0.000000e+00
         vertex -9.175570e+00 1.618034e+00 0.000000e+00
      endloop
   endfacet
   facet normal 0.000000e+00 0.000000e+00 -1.000000e+00
      outer loop
         vertex -9.299038e+00 -7.500000e-01 0.000000e+00
         vertex -9.175570e+00 -1.618034e+00 0.000000e+00
         vertex -9.902113e+00 -6.180340e-01 0.000000e+00
      endloop
   endfacet
   facet normal 0.000000e+00 0.000000e+00 -1.000000e+00
      outer loop
         vertex -7.486970e+00 -1.409539e+00 0.000000e+00
         vertex -5.405736e+00 -2.377772e+00 0.000000e+00
         vertex -8.000000e+00 -2.000000e+00 0.000000e+00
      endloop
   endfacet
   facet normal 0.000000e+00 0.000000e+00 -1.000000e+00
      outer loop
         vertex -3.747835e+00 2.922816e+00 0.000000e+00
         vertex -3.655583e+00 -2.957728e+00 0.000000e+00
         vertex -3.701695e+00 -2.940231e+00 0.000000e+00
      endloop
   endfacet
   facet normal 0.000000e+00 0.000000e+00 -1.000000e+00
      outer loop
         vertex -3.395338e+00 3.057842e+00 0.000000e+00
         vertex -3.379393e+00 -3.064032e+00 0.000000e+00
         vertex -3.563436e+00 -2.992938e+00 0.000000e+00
      endloop
   endfacet
   facet normal 0.000000e+00 0.000000e+00 -1.000000e+00
      outer loop
         vertex -3.190040e+00 3.137815e+00 0.000000e+00
         vertex -3.036280e+00 -3.197838e+00 0.000000e+00
         vertex -3.228461e+00 -3.122818e+00 0.000000e+00
      endloop
   endfacet
   facet normal 0.000000e+00 0.000000e+00 -1.000000e+00
      outer loop
         vertex -2.834638e+00 3.276182e+00 0.000000e+00
         vertex -2.707284e+00 -3.325176e+00 0.000000e+00
         vertex -2.881497e+00 -3.258043e+00 0.000000e+00
      endloop
   endfacet
   facet normal 0.000000e+00 0.000000e+00 -1.000000e+00
      outer loop
         vertex -2.440696e+00 3.425697e+00 0.000000e+00
         vertex -2.053158e+00 -3.564351e+00 0.000000e+00
         vertex -2.446123e+00 -3.423685e+00 0.000000e+00
      endloop
   endfacet
   facet normal 0.000000e+00 0.000000e+00 -1.000000e+00
      outer loop
         vertex -1.646945e+00 3.695973e+00 0.000000e+00
         vertex -5.447659e-01 -3.948165e+00 0.000000e+00
         vertex -1.458108e+00 -3.751103e+00 0.000000e+00
      endloop
   endfacet
   facet normal 0.000000e+00 0.000000e+00 -1.000000e+00
      outer loop
         vertex -6.241444e+00 2.181546e+00 0.000000e+00
         vertex -6.522789e+00 2.604723e-01 0.000000e+00
         vertex -7.035819e+00 1.149067e+00 0.000000e+00
      endloop
   endfacet
   facet normal 0.000000e+00 0.000000e+00 -1.000000e+00
      outer loop
         vertex -5.405736e+00 -2.377772e+00 0.000000e+00
         vertex -7.486970e+00 -1.409539e+00 0.000000e+00
         vertex -6.700962e+00 -7.500000e-01 0.000000e+00
      endloop
   endfacet
   facet normal 0.000000e+00 0.000000e+00 -1.000000e+00
      outer loop
         vertex -9.175570e+00 -1.618034e+00 0.000000e+00
         vertex -9.299038e+00 -7.500000e-01 0.000000e+00
         vertex -8.513030e+00 -1.409539e+00 0.000000e+00
      endloop
   endfacet
   facet normal 0.000000e+00 0.000000e+00 -1.000000e+00
      outer loop
         vertex -9.902113e+00 6.180340e-01 0.000000e+00
         vertex -8.964181e+00 1.149067e+00 0.000000e+00
         vertex -9.477212e+00 2.604723e-01 0.000000e+00
      endloop
   endfacet
   facet normal -0.000000e+00 0.000000e+00 -1.000000e+00
      outer loop
         vertex 3.127326e+00 -2.493959e+00 0.000000e+00
         vertex 1.735535e+00 -3.603875e+00 0.000000e+00
         vertex -5.447659e-01 -3.948165e+00 0.000000e+00
      endloop
   endfacet
   facet normal -0.000000e+00 0.000000e+00 -1.000000e+00
      outer loop
         vertex 1.735535e+00 3.603875e+00 0.000000e+00
         vertex 3.127326e+00 2.493959e+00 0.000000e+00
         vertex -5.447659e-01 -3.948165e+00 0.000000e+00
      endloop
   endfacet
   facet normal 0.000000e+00 -0.000000e+00 -1.000000e+00
      outer loop
         vertex -3.036280e+00 -3.197838e+00 0.000000e+00
         vertex -3.031999e+00 3.199508e+00 0.000000e+00
         vertex -2.881497e+00 -3.258043e+00 0.000000e+00
      endloop
   endfacet
   facet normal 0.000000e+00 0.000000e+00 -1.000000e+00
      outer loop
         vertex -3.747835e+00 2.922816e+00 0.000000e+00
         vertex -3.701695e+00 -2.940231e+00 0.000000e+00
         vertex -3.826809e+00 2.893229e+00 0.000000e+00
      endloop
   endfacet
   facet normal 0.000000e+00 0.000000e+00 -1.000000e+00
      outer loop
         vertex -6.241444e+00 2.181546e+00 0.000000e+00
         vertex -4.941935e+00 2.511857e+00 0.000000e+00
         vertex -6.522789e+00 2.604723e-01 0.000000e+00
      endloop
   endfacet
   facet normal 0.000000e+00 0.000000e+00 -1.000000e+00
      outer loop
         vertex -9.477212e+00 2.604723e-01 0.000000e+00
         vertex -9.299038e+00 -7.500000e-01 0.000000e+00
         vertex -9.902113e+00 -6.180340e-01 0.000000e+00
      endloop
   endfacet
   facet normal 0.000000e+00 0.000000e+00 -1.000000e+00
      outer loop
         vertex -3.228461e+00 -3.122818e+00 0.000000e+00
         vertex -3.379393e+00 -3.064032e+00 0.000000e+00
         vertex -3.395338e+00 3.057842e+00 0.000000e+00
      endloop
   endfacet
   facet normal 0.000000e+00 -0.000000e+00 -1.000000e+00
      outer loop
         vertex -2.053158e+00 -3.564351e+00 0.000000e+00
         vertex -1.646945e+00 3.695973e+00 0.000000e+00
         vertex -1.458108e+00 -3.751103e+00 0.000000e+00
      endloop
   endfacet
   facet normal 0.000000e+00 0.000000e+00 -1.000000e+00
      outer loop
         vertex -9.902113e+00 -6.180340e-01 0.000000e+00
         vertex -9.902113e+00 6.180340e-01 0.000000e+00
         vertex -9.477212e+00 2.604723e-01 0.000000e+00
      endloop
   endfacet
   facet normal 0.000000e+00 -0.000000e+00 -1.000000e+00
      outer loop
         vertex -5.447659e-01 -3.948165e+00 0.000000e+00
         vertex 3.899712e+00 8.900837e-01 0.000000e+00
         vertex 3.899712e+00 -8.900837e-01 0.000000e+00
      endloop
   endfacet
   facet normal 0.000000e+00 0.000000e+00 -1.000000e+00
      outer loop
         vertex -2.707284e+00 -3.325176e+00 0.000000e+00
         vertex -2.834638e+00 3.276182e+00 0.000000e+00
         vertex -2.440696e+00 3.425697e+00 0.000000e+00
      endloop
   endfacet
   facet normal 0.000000e+00 -0.000000e+00 -1.000000e+00
      outer loop
         vertex -3.563436e+00 -2.992938e+00 0.000000e+00
         vertex -3.554327e+00 2.996435e+00 0.000000e+00
         vertex -3.395338e+00 3.057842e+00 0.000000e+00
      endloop
   endfacet
   facet normal 0.000000e+00 0.000000e+00 -1.000000e+00
      outer loop
         vertex -8.000000e+00 1.500000e+00 0.000000e+00
         vertex -9.175570e+00 1.618034e+00 0.000000e+00
         vertex -8.000000e+00 2.000000e+00 0.000000e+00
      endloop
   endfacet
   facet normal 0.000000e+00 0.000000e+00 -1.000000e+00
      outer loop
         vertex -6.522789e+00 2.604723e-01 0.000000e+00
         vertex -3.701695e+00 -2.940231e+00 0.000000e+00
         vertex -5.405736e+00 -2.377772e+00 0.000000e+00
      endloop
   endfacet
   facet normal 0.000000e+00 0.000000e+00 -1.000000e+00
      outer loop
         vertex -2.440696e+00 3.425697e+00 0.000000e+00
         vertex -2.446123e+00 -3.423685e+00 0.000000e+00
         vertex -2.707284e+00 -3.325176e+00 0.000000e+00
      endloop
   endfacet
   facet normal 0.000000e+00 0.000000e+00 -1.000000e+00
      outer loop
         vertex -5.405736e+00 -2.377772e+00 0.000000e+00
         vertex -6.700962e+00 -7.500000e-01 0.000000e+00
         vertex -6.522789e+00 2.604723e-01 0.000000e+00
      endloop
   endfacet
   facet normal -0.000000e+00 0.000000e+00 -1.000000e+00
      outer loop
         vertex -9.175570e+00 1.618034e+00 0.000000e+00
         vertex -8.000000e+00 1.500000e+00 0.000000e+00
         vertex -8.964181e+00 1.149067e+00 0.000000e+00
      endloop
   endfacet
   facet normal 0.000000e+00 0.000000e+00 -1.000000e+00
      outer loop
         vertex -3.563436e+00 -2.992938e+00 0.000000e+00
         vertex -3.655583e+00 -2.957728e+00 0.000000e+00
         vertex -3.554327e+00 2.996435e+00 0.000000e+00
      endloop
   endfacet
   facet normal 0.000000e+00 0.000000e+00 -1.000000e+00
      outer loop
         vertex -8.000000e+00 1.500000e+00 0.000000e+00
         vertex -8.000000e+00 2.000000e+00 0.000000e+00
         vertex -7.035819e+00 1.149067e+00 0.000000e+00
      endloop
   endfacet
   facet normal 0.000000e+00 0.000000e+00 -1.000000e+00
      outer loop
         vertex 1.224647e-15 4.000000e+00 0.000000e+00
         vertex -5.447659e-01 -3.948165e+00 0.000000e+00
         vertex -1.646945e+00 3.695973e+00 0.000000e+00
      endloop
   endfacet
   facet normal 0.000000e+00 0.000000e+00 -1.000000e+00
      outer loop
         vertex -3.036280e+00 -3.197838e+00 0.000000e+00
         vertex -3.190040e+00 3.137815e+00 0.000000e+00
         vertex -3.031999e+00 3.199508e+00 0.000000e+00
      endloop
   endfacet
   facet normal 0.000000e+00 0.000000e+00 -1.000000e+00
      outer loop
         vertex -8.513030e+00 -1.409539e+00 0.000000e+00
         vertex -8.000000e+00 -2.000000e+00 0.000000e+00
         vertex -9.175570e+00 -1.618034e+00 0.000000e+00
      endloop
   endfacet
   facet normal 0.000000e+00 -0.000000e+00 -1.000000e+00
      outer loop
         vertex -4.302474e+00 2.721589e+00 0.000000e+00
         vertex -3.985012e+00 2.834846e+00 0.000000e+00
         vertex -3.701695e+00 -2.940231e+00 0.000000e+00
      endloop
   endfacet
   facet normal 0.000000e+00 0.000000e+00 -1.000000e+00
      outer loop
         vertex -4.302474e+00 2.721589e+00 0.000000e+00
         vertex -3.701695e+00 -2.940231e+00 0.000000e+00
         vertex -6.522789e+00 2.604723e-01 0.000000e+00
      endloop
   endfacet
   facet normal 0.000000e+00 0.000000e+00 -1.000000e+00
      outer loop
         vertex -8.000000e+00 -2.000000e+00 0.000000e+00
         vertex -8.513030e+00 -1.409539e+00 0.000000e+00
         vertex -7.486970e+00 -1.409539e+00 0.000000e+00
      endloop
   endfacet
   facet normal 0.000000e+00 0.000000e+00 1.000000e+00
      outer loop
         vertex -5.447659e-01 -3.948165e+00 6.000000e+00
         vertex 4.249243e-10 -4.000000e+00 6.000000e+00
         vertex -1.289776e-15 -2.925000e+00 6.000000e+00
      endloop
   endfacet
   facet normal 0.000000e+00 0.000000e+00 1.000000e+00
      outer loop
         vertex 1.735535e+00 -3.603875e+00 6.000000e+00
         vertex 3.127326e+00 -2.493959e+00 6.000000e+00
         vertex 1.462500e+00 -2.533124e+00 6.000000e+00
      endloop
   endfacet
   facet normal 0.000000e+00 0.000000e+00 1.000000e+00
      outer loop
         vertex 3.899712e+00 -8.900837e-01 6.000000e+00
         vertex 3.899712e+00 8.900837e-01 6.000000e+00
         vertex 2.925000e+00 -9.047078e-16 6.000000e+00
      endloop
   endfacet
   facet normal 0.000000e+00 0.000000e+00 1.000000e+00
      outer loop
         vertex 3.127326e+00 2.493959e+00 6.000000e+00
         vertex 1.735535e+00 3.603875e+00 6.000000e+00
         vertex 1.462500e+00 2.533124e+00 6.000000e+00
      endloop
   endfacet
   facet normal -0.000000e+00 0.000000e+00 1.000000e+00
      outer loop
         vertex 1.224647e-15 4.000000e+00 6.000000e+00
         vertex -1.646945e+00 3.695973e+00 6.000000e+00
         vertex 7.256032e-16 2.925000e+00 6.000000e+00
      endloop
   endfacet
   facet normal -0.000000e+00 0.000000e+00 1.000000e+00
      outer loop
         vertex -2.440696e+00 3.425697e+00 6.000000e+00
         vertex -2.834638e+00 3.276182e+00 6.000000e+00
         vertex -1.462500e+00 2.533124e+00 6.000000e+00
      endloop
   endfacet
   facet normal -0.000000e+00 0.000000e+00 1.000000e+00
      outer loop
         vertex -3.031999e+00 3.199508e+00 6.000000e+00
         vertex -3.190040e+00 3.137815e+00 6.000000e+00
         vertex -2.533124e+00 1.462500e+00 6.000000e+00
      endloop
   endfacet
   facet normal -0.000000e+00 0.000000e+00 1.000000e+00
      outer loop
         vertex -3.395338e+00 3.057842e+00 6.000000e+00
         vertex -3.554327e+00 2.996435e+00 6.000000e+00
         vertex -2.533124e+00 1.462500e+00 6.000000e+00
      endloop
   endfacet
   facet normal -0.000000e+00 0.000000e+00 1.000000e+00
      outer loop
         vertex -3.747835e+00 2.922816e+00 6.000000e+00
         vertex -3.826809e+00 2.893229e+00 6.000000e+00
         vertex -2.533124e+00 1.462500e+00 6.000000e+00
      endloop
   endfacet
   facet normal -0.000000e+00 0.000000e+00 1.000000e+00
      outer loop
         vertex -3.985012e+00 2.834846e+00 6.000000e+00
         vertex -4.302474e+00 2.721589e+00 6.000000e+00
         vertex -2.533124e+00 1.462500e+00 6.000000e+00
      endloop
   endfacet
   facet normal -0.000000e+00 0.000000e+00 1.000000e+00
      outer loop
         vertex -4.941935e+00 2.511857e+00 6.000000e+00
         vertex -6.241444e+00 2.181546e+00 6.000000e+00
         vertex -6.522789e+00 2.604723e-01 6.000000e+00
      endloop
   endfacet
   facet normal -0.000000e+00 0.000000e+00 1.000000e+00
      outer loop
         vertex -8.000000e+00 2.000000e+00 6.000000e+00
         vertex -9.175570e+00 1.618034e+00 6.000000e+00
         vertex -8.000000e+00 1.500000e+00 6.000000e+00
      endloop
   endfacet
   facet normal 0.000000e+00 0.000000e+00 1.000000e+00
      outer loop
         vertex -9.902113e+00 6.180340e-01 6.000000e+00
         vertex -9.902113e+00 -6.180340e-01 6.000000e+00
         vertex -9.477212e+00 2.604723e-01 6.000000e+00
      endloop
   endfacet
   facet normal 0.000000e+00 0.000000e+00 1.000000e+00
      outer loop
         vertex -9.175570e+00 -1.618034e+00 6.000000e+00
         vertex -8.000000e+00 -2.000000e+00 6.000000e+00
         vertex -8.513030e+00 -1.409539e+00 6.000000e+00
      endloop
   endfacet
   facet normal 0.000000e+00 -0.000000e+00 1.000000e+00
      outer loop
         vertex -5.405736e+00 -2.377772e+00 6.000000e+00
         vertex -3.701695e+00 -2.940231e+00 6.000000e+00
         vertex -2.533124e+00 -1.462500e+00 6.000000e+00
      endloop
   endfacet
   facet normal 0.000000e+00 -0.000000e+00 1.000000e+00
      outer loop
         vertex -3.655583e+00 -2.957728e+00 6.000000e+00
         vertex -3.563436e+00 -2.992938e+00 6.000000e+00
         vertex -2.533124e+00 -1.462500e+00 6.000000e+00
      endloop
   endfacet
   facet normal 0.000000e+00 -0.000000e+00 1.000000e+00
      outer loop
         vertex -3.379393e+00 -3.064032e+00 6.000000e+00
         vertex -3.228461e+00 -3.122818e+00 6.000000e+00
         vertex -2.533124e+00 -1.462500e+00 6.000000e+00
      endloop
   endfacet
   facet normal 0.000000e+00 -0.000000e+00 1.000000e+00
      outer loop
         vertex -3.036280e+00 -3.197838e+00 6.000000e+00
         vertex -2.881497e+00 -3.258043e+00 6.000000e+00
         vertex -2.533124e+00 -1.462500e+00 6.000000e+00
      endloop
   endfacet
   facet normal 0.000000e+00 -0.000000e+00 1.000000e+00
      outer loop
         vertex -2.707284e+00 -3.325176e+00 6.000000e+00
         vertex -2.446123e+00 -3.423685e+00 6.000000e+00
         vertex -1.462500e+00 -2.533124e+00 6.000000e+00
      endloop
   endfacet
   facet normal 0.000000e+00 0.000000e+00 1.000000e+00
      outer loop
         vertex -2.053158e+00 -3.564351e+00 6.000000e+00
         vertex -1.458108e+00 -3.751103e+00 6.000000e+00
         vertex -1.462500e+00 -2.533124e+00 6.000000e+00
      endloop
   endfacet
   facet normal 0.000000e+00 0.000000e+00 1.000000e+00
      outer loop
         vertex -8.964181e+00 1.149067e+00 6.000000e+00
         vertex -8.000000e+00 1.500000e+00 6.000000e+00
         vertex -9.175570e+00 1.618034e+00 6.000000e+00
      endloop
   endfacet
   facet normal 0.000000e+00 -0.000000e+00 1.000000e+00
      outer loop
         vertex -7.035819e+00 1.149067e+00 6.000000e+00
         vertex -6.522789e+00 2.604723e-01 6.000000e+00
         vertex -6.241444e+00 2.181546e+00 6.000000e+00
      endloop
   endfacet
   facet normal -0.000000e+00 0.000000e+00 1.000000e+00
      outer loop
         vertex -6.700962e+00 -7.500000e-01 6.000000e+00
         vertex -7.486970e+00 -1.409539e+00 6.000000e+00
         vertex -5.405736e+00 -2.377772e+00 6.000000e+00
      endloop
   endfacet
   facet normal 0.000000e+00 0.000000e+00 1.000000e+00
      outer loop
         vertex -8.513030e+00 -1.409539e+00 6.000000e+00
         vertex -9.299038e+00 -7.500000e-01 6.000000e+00
         vertex -9.175570e+00 -1.618034e+00 6.000000e+00
      endloop
   endfacet
   facet normal 0.000000e+00 0.000000e+00 1.000000e+00
      outer loop
         vertex -9.477212e+00 2.604723e-01 6.000000e+00
         vertex -8.964181e+00 1.149067e+00 6.000000e+00
         vertex -9.902113e+00 6.180340e-01 6.000000e+00
      endloop
   endfacet
   facet normal 0.000000e+00 -0.000000e+00 1.000000e+00
      outer loop
         vertex 7.256032e-16 2.925000e+00 6.000000e+00
         vertex 1.462500e+00 2.533124e+00 6.000000e+00
         vertex 1.735535e+00 3.603875e+00 6.000000e+00
      endloop
   endfacet
   facet normal 0.000000e+00 -0.000000e+00 1.000000e+00
      outer loop
         vertex 2.533124e+00 1.462500e+00 6.000000e+00
         vertex 2.925000e+00 -9.047078e-16 6.000000e+00
         vertex 3.899712e+00 8.900837e-01 6.000000e+00
      endloop
   endfacet
   facet normal 0.000000e+00 0.000000e+00 1.000000e+00
      outer loop
         vertex 2.533124e+00 -1.462500e+00 6.000000e+00
         vertex 1.462500e+00 -2.533124e+00 6.000000e+00
         vertex 3.127326e+00 -2.493959e+00 6.000000e+00
      endloop
   endfacet
   facet normal 0.000000e+00 0.000000e+00 1.000000e+00
      outer loop
         vertex -1.289776e-15 -2.925000e+00 6.000000e+00
         vertex -1.462500e+00 -2.533124e+00 6.000000e+00
         vertex -5.447659e-01 -3.948165e+00 6.000000e+00
      endloop
   endfacet
   facet normal 0.000000e+00 0.000000e+00 1.000000e+00
      outer loop
         vertex -2.533124e+00 -1.462500e+00 6.000000e+00
         vertex -2.925000e+00 -1.882894e-16 6.000000e+00
         vertex -5.405736e+00 -2.377772e+00 6.000000e+00
      endloop
   endfacet
   facet normal 0.000000e+00 0.000000e+00 1.000000e+00
      outer loop
         vertex -2.533124e+00 1.462500e+00 6.000000e+00
         vertex -1.462500e+00 2.533124e+00 6.000000e+00
         vertex -2.834638e+00 3.276182e+00 6.000000e+00
      endloop
   endfacet
   facet normal 0.000000e+00 0.000000e+00 1.000000e+00
      outer loop
         vertex 1.735535e+00 -3.603875e+00 6.000000e+00
         vertex 1.462500e+00 -2.533124e+00 6.000000e+00
         vertex -1.289776e-15 -2.925000e+00 6.000000e+00
      endloop
   endfacet
   facet normal 0.000000e+00 0.000000e+00 1.000000e+00
      outer loop
         vertex 1.224647e-15 4.000000e+00 6.000000e+00
         vertex 7.256032e-16 2.925000e+00 6.000000e+00
         vertex 1.735535e+00 3.603875e+00 6.000000e+00
      endloop
   endfacet
   facet normal 0.000000e+00 0.000000e+00 1.000000e+00
      outer loop
         vertex -3.031999e+00 3.199508e+00 6.000000e+00
         vertex -2.533124e+00 1.462500e+00 6.000000e+00
         vertex -2.834638e+00 3.276182e+00 6.000000e+00
      endloop
   endfacet
   facet normal 0.000000e+00 0.000000e+00 1.000000e+00
      outer loop
         vertex -2.533124e+00 1.462500e+00 6.000000e+00
         vertex -3.554327e+00 2.996435e+00 6.000000e+00
         vertex -3.747835e+00 2.922816e+00 6.000000e+00
      endloop
   endfacet
   facet normal 0.000000e+00 0.000000e+00 1.000000e+00
      outer loop
         vertex -2.533124e+00 1.462500e+00 6.000000e+00
         vertex -4.302474e+00 2.721589e+00 6.000000e+00
         vertex -2.925000e+00 -1.882894e-16 6.000000e+00
      endloop
   endfacet
   facet normal -0.000000e+00 0.000000e+00 1.000000e+00
      outer loop
         vertex -9.477212e+00 2.604723e-01 6.000000e+00
         vertex -9.902113e+00 -6.180340e-01 6.000000e+00
         vertex -9.299038e+00 -7.500000e-01 6.000000e+00
      endloop
   endfacet
   facet normal 0.000000e+00 0.000000e+00 1.000000e+00
      outer loop
         vertex -3.655583e+00 -2.957728e+00 6.000000e+00
         vertex -2.533124e+00 -1.462500e+00 6.000000e+00
         vertex -3.701695e+00 -2.940231e+00 6.000000e+00
      endloop
   endfacet
   facet normal 0.000000e+00 0.000000e+00 1.000000e+00
      outer loop
         vertex -3.036280e+00 -3.197838e+00 6.000000e+00
         vertex -2.533124e+00 -1.462500e+00 6.000000e+00
         vertex -3.228461e+00 -3.122818e+00 6.000000e+00
      endloop
   endfacet
   facet normal 0.000000e+00 0.000000e+00 1.000000e+00
      outer loop
         vertex -2.053158e+00 -3.564351e+00 6.000000e+00
         vertex -1.462500e+00 -2.533124e+00 6.000000e+00
         vertex -2.446123e+00 -3.423685e+00 6.000000e+00
      endloop
   endfacet
   facet normal 0.000000e+00 0.000000e+00 1.000000e+00
      outer loop
         vertex -6.700962e+00 -7.500000e-01 6.000000e+00
         vertex -5.405736e+00 -2.377772e+00 6.000000e+00
         vertex -6.522789e+00 2.604723e-01 6.000000e+00
      endloop
   endfacet
   facet normal 0.000000e+00 0.000000e+00 1.000000e+00
      outer loop
         vertex -9.902113e+00 6.180340e-01 6.000000e+00
         vertex -8.964181e+00 1.149067e+00 6.000000e+00
         vertex -9.175570e+00 1.618034e+00 6.000000e+00
      endloop
   endfacet
   facet normal 0.000000e+00 0.000000e+00 1.000000e+00
      outer loop
         vertex -5.405736e+00 -2.377772e+00 6.000000e+00
         vertex -2.925000e+00 -1.882894e-16 6.000000e+00
         vertex -6.522789e+00 2.604723e-01 6.000000e+00
      endloop
   endfacet
   facet normal 0.000000e+00 0.000000e+00 1.000000e+00
      outer loop
         vertex -2.925000e+00 -1.882894e-16 6.000000e+00
         vertex -4.302474e+00 2.721589e+00 6.000000e+00
         vertex -4.941935e+00 2.511857e+00 6.000000e+00
      endloop
   endfacet
   facet normal 0.000000e+00 0.000000e+00 1.000000e+00
      outer loop
         vertex -2.925000e+00 -1.882894e-16 6.000000e+00
         vertex -4.941935e+00 2.511857e+00 6.000000e+00
         vertex -6.522789e+00 2.604723e-01 6.000000e+00
      endloop
   endfacet
   facet normal 0.000000e+00 0.000000e+00 1.000000e+00
      outer loop
         vertex 4.249243e-10 -4.000000e+00 6.000000e+00
         vertex 1.735535e+00 -3.603875e+00 6.000000e+00
         vertex -1.289776e-15 -2.925000e+00 6.000000e+00
      endloop
   endfacet
   facet normal 0.000000e+00 0.000000e+00 1.000000e+00
      outer loop
         vertex 3.899712e+00 8.900837e-01 6.000000e+00
         vertex 3.127326e+00 2.493959e+00 6.000000e+00
         vertex 2.533124e+00 1.462500e+00 6.000000e+00
      endloop
   endfacet
   facet normal -0.000000e+00 0.000000e+00 1.000000e+00
      outer loop
         vertex -3.190040e+00 3.137815e+00 6.000000e+00
         vertex -3.395338e+00 3.057842e+00 6.000000e+00
         vertex -2.533124e+00 1.462500e+00 6.000000e+00
      endloop
   endfacet
   facet normal -0.000000e+00 0.000000e+00 1.000000e+00
      outer loop
         vertex -6.241444e+00 2.181546e+00 6.000000e+00
         vertex -8.000000e+00 2.000000e+00 6.000000e+00
         vertex -7.035819e+00 1.149067e+00 6.000000e+00
      endloop
   endfacet
   facet normal 0.000000e+00 0.000000e+00 1.000000e+00
      outer loop
         vertex -8.000000e+00 -2.000000e+00 6.000000e+00
         vertex -5.405736e+00 -2.377772e+00 6.000000e+00
         vertex -7.486970e+00 -1.409539e+00 6.000000e+00
      endloop
   endfacet
   facet normal 0.000000e+00 -0.000000e+00 1.000000e+00
      outer loop
         vertex -2.881497e+00 -3.258043e+00 6.000000e+00
         vertex -2.707284e+00 -3.325176e+00 6.000000e+00
         vertex -2.533124e+00 -1.462500e+00 6.000000e+00
      endloop
   endfacet
   facet normal 0.000000e+00 0.000000e+00 1.000000e+00
      outer loop
         vertex -8.000000e+00 1.500000e+00 6.000000e+00
         vertex -7.035819e+00 1.149067e+00 6.000000e+00
         vertex -8.000000e+00 2.000000e+00 6.000000e+00
      endloop
   endfacet
   facet normal 0.000000e+00 0.000000e+00 1.000000e+00
      outer loop
         vertex -1.462500e+00 2.533124e+00 6.000000e+00
         vertex 7.256032e-16 2.925000e+00 6.000000e+00
         vertex -1.646945e+00 3.695973e+00 6.000000e+00
      endloop
   endfacet
   facet normal 0.000000e+00 0.000000e+00 1.000000e+00
      outer loop
         vertex 2.925000e+00 -9.047078e-16 6.000000e+00
         vertex 2.533124e+00 -1.462500e+00 6.000000e+00
         vertex 3.899712e+00 -8.900837e-01 6.000000e+00
      endloop
   endfacet
   facet normal 0.000000e+00 0.000000e+00 1.000000e+00
      outer loop
         vertex 3.127326e+00 2.493959e+00 6.000000e+00
         vertex 1.462500e+00 2.533124e+00 6.000000e+00
         vertex 2.533124e+00 1.462500e+00 6.000000e+00
      endloop
   endfacet
   facet normal 0.000000e+00 0.000000e+00 1.000000e+00
      outer loop
         vertex -3.985012e+00 2.834846e+00 6.000000e+00
         vertex -2.533124e+00 1.462500e+00 6.000000e+00
         vertex -3.826809e+00 2.893229e+00 6.000000e+00
      endloop
   endfacet
   facet normal 0.000000e+00 0.000000e+00 1.000000e+00
      outer loop
         vertex -2.707284e+00 -3.325176e+00 6.000000e+00
         vertex -1.462500e+00 -2.533124e+00 6.000000e+00
         vertex -2.533124e+00 -1.462500e+00 6.000000e+00
      endloop
   endfacet
   facet normal 0.000000e+00 -0.000000e+00 1.000000e+00
      outer loop
         vertex 2.533124e+00 -1.462500e+00 6.000000e+00
         vertex 3.127326e+00 -2.493959e+00 6.000000e+00
         vertex 3.899712e+00 -8.900837e-01 6.000000e+00
      endloop
   endfacet
   facet normal 0.000000e+00 0.000000e+00 1.000000e+00
      outer loop
         vertex -8.000000e+00 -2.000000e+00 6.000000e+00
         vertex -7.486970e+00 -1.409539e+00 6.000000e+00
         vertex -8.513030e+00 -1.409539e+00 6.000000e+00
      endloop
   endfacet
   facet normal -0.000000e+00 0.000000e+00 1.000000e+00
      outer loop
         vertex -1.646945e+00 3.695973e+00 6.000000e+00
         vertex -2.440696e+00 3.425697e+00 6.000000e+00
         vertex -1.462500e+00 2.533124e+00 6.000000e+00
      endloop
   endfacet
   facet normal 0.000000e+00 -0.000000e+00 1.000000e+00
      outer loop
         vertex -3.563436e+00 -2.992938e+00 6.000000e+00
         vertex -3.379393e+00 -3.064032e+00 6.000000e+00
         vertex -2.533124e+00 -1.462500e+00 6.000000e+00
      endloop
   endfacet
   facet normal -0.000000e+00 -0.000000e+00 1.000000e+00
      outer loop
         vertex -1.462500e+00 -2.533124e+00 6.000000e+00
         vertex -1.458108e+00 -3.751103e+00 6.000000e+00
         vertex -5.447659e-01 -3.948165e+00 6.000000e+00
      endloop
   endfacet
   facet normal 0.000000e+00 0.000000e+00 1.000000e+00
      outer loop
         vertex -9.902113e+00 -6.180340e-01 6.000000e+00
         vertex -9.175570e+00 -1.618034e+00 6.000000e+00
         vertex -9.299038e+00 -7.500000e-01 6.000000e+00
      endloop
   endfacet
   facet normal 3.420203e-01 -9.396926e-01 0.000000e+00
      outer loop
         vertex -8.964181e+00 1.149067e+00 0.000000e+00
         vertex -8.000000e+00 1.500000e+00 0.000000e+00
         vertex -8.000000e+00 1.500000e+00 6.000000e+00
      endloop
   endfacet
   facet normal 9.848077e-01 1.736486e-01 -0.000000e+00
      outer loop
         vertex -9.299038e+00 -7.500000e-01 6.000000e+00
         vertex -9.299038e+00 -7.500000e-01 0.000000e+00
         vertex -9.477212e+00 2.604723e-01 0.000000e+00
      endloop
   endfacet
   facet normal 0.000000e+00 1.000000e+00 -0.000000e+00
      outer loop
         vertex -7.486970e+00 -1.409539e+00 6.000000e+00
         vertex -7.486970e+00 -1.409539e+00 0.000000e+00
         vertex -8.513030e+00 -1.409539e+00 0.000000e+00
      endloop
   endfacet
   facet normal -9.848078e-01 1.736482e-01 0.000000e+00
      outer loop
         vertex -6.522789e+00 2.604723e-01 6.000000e+00
         vertex -6.522789e+00 2.604723e-01 0.000000e+00
         vertex -6.700962e+00 -7.500000e-01 0.000000e+00
      endloop
   endfacet
   facet normal -3.420201e-01 -9.396926e-01 0.000000e+00
      outer loop
         vertex -8.000000e+00 1.500000e+00 6.000000e+00
         vertex -8.000000e+00 1.500000e+00 0.000000e+00
         vertex -7.035819e+00 1.149067e+00 0.000000e+00
      endloop
   endfacet
   facet normal -8.660255e-01 -4.999999e-01 -0.000000e+00
      outer loop
         vertex -6.522789e+00 2.604723e-01 0.000000e+00
         vertex -6.522789e+00 2.604723e-01 6.000000e+00
         vertex -7.035819e+00 1.149067e+00 6.000000e+00
      endloop
   endfacet
   facet normal -6.427876e-01 7.660444e-01 0.000000e+00
      outer loop
         vertex -7.486970e+00 -1.409539e+00 0.000000e+00
         vertex -7.486970e+00 -1.409539e+00 6.000000e+00
         vertex -6.700962e+00 -7.500000e-01 6.000000e+00
      endloop
   endfacet
   facet normal 6.427876e-01 7.660444e-01 0.000000e+00
      outer loop
         vertex -9.299038e+00 -7.500000e-01 0.000000e+00
         vertex -9.299038e+00 -7.500000e-01 6.000000e+00
         vertex -8.513030e+00 -1.409539e+00 6.000000e+00
      endloop
   endfacet
   facet normal 8.660251e-01 -5.000006e-01 0.000000e+00
      outer loop
         vertex -8.964181e+00 1.149067e+00 0.000000e+00
         vertex -8.964181e+00 1.149067e+00 6.000000e+00
         vertex -9.477212e+00 2.604723e-01 6.000000e+00
      endloop
   endfacet
   facet normal 3.420203e-01 -9.396926e-01 0.000000e+00
      outer loop
         vertex -8.964181e+00 1.149067e+00 6.000000e+00
         vertex -8.964181e+00 1.149067e+00 0.000000e+00
         vertex -8.000000e+00 1.500000e+00 6.000000e+00
      endloop
   endfacet
   facet normal -9.848078e-01 1.736482e-01 0.000000e+00
      outer loop
         vertex -6.700962e+00 -7.500000e-01 6.000000e+00
         vertex -6.522789e+00 2.604723e-01 6.000000e+00
         vertex -6.700962e+00 -7.500000e-01 0.000000e+00
      endloop
   endfacet
   facet normal -6.427876e-01 7.660444e-01 0.000000e+00
      outer loop
         vertex -6.700962e+00 -7.500000e-01 0.000000e+00
         vertex -7.486970e+00 -1.409539e+00 0.000000e+00
         vertex -6.700962e+00 -7.500000e-01 6.000000e+00
      endloop
   endfacet
   facet normal 8.660251e-01 -5.000006e-01 0.000000e+00
      outer loop
         vertex -9.477212e+00 2.604723e-01 6.000000e+00
         vertex -9.477212e+00 2.604723e-01 0.000000e+00
         vertex -8.964181e+00 1.149067e+00 0.000000e+00
      endloop
   endfacet
   facet normal -8.660255e-01 -4.999999e-01 0.000000e+00
      outer loop
         vertex -7.035819e+00 1.149067e+00 6.000000e+00
         vertex -7.035819e+00 1.149067e+00 0.000000e+00
         vertex -6.522789e+00 2.604723e-01 0.000000e+00
      endloop
   endfacet
   facet normal -0.000000e+00 1.000000e+00 0.000000e+00
      outer loop
         vertex -8.513030e+00 -1.409539e+00 0.000000e+00
         vertex -8.513030e+00 -1.409539e+00 6.000000e+00
         vertex -7.486970e+00 -1.409539e+00 6.000000e+00
      endloop
   endfacet
   facet normal 9.848077e-01 1.736486e-01 0.000000e+00
      outer loop
         vertex -9.477212e+00 2.604723e-01 6.000000e+00
         vertex -9.299038e+00 -7.500000e-01 6.000000e+00
         vertex -9.477212e+00 2.604723e-01 0.000000e+00
      endloop
   endfacet
   facet normal -3.420201e-01 -9.396926e-01 0.000000e+00
      outer loop
         vertex -8.000000e+00 1.500000e+00 6.000000e+00
         vertex -7.035819e+00 1.149067e+00 0.000000e+00
         vertex -7.035819e+00 1.149067e+00 6.000000e+00
      endloop
   endfacet
   facet normal 6.427876e-01 7.660444e-01 -0.000000e+00
      outer loop
         vertex -8.513030e+00 -1.409539e+00 6.000000e+00
         vertex -8.513030e+00 -1.409539e+00 0.000000e+00
         vertex -9.299038e+00 -7.500000e-01 0.000000e+00
      endloop
   endfacet
   facet normal -1.440984e-01 -9.895634e-01 0.000000e+00
      outer loop
         vertex -8.000000e+00 -2.000000e+00 6.000000e+00
         vertex -8.000000e+00 -2.000000e+00 0.000000e+00
         vertex -5.405736e+00 -2.377772e+00 0.000000e+00
      endloop
   endfacet
   facet normal -3.547571e-01 -9.349585e-01 0.000000e+00
      outer loop
         vertex -3.701695e+00 -2.940231e+00 0.000000e+00
         vertex -3.655583e+00 -2.957728e+00 0.000000e+00
         vertex -3.655583e+00 -2.957728e+00 6.000000e+00
      endloop
   endfacet
   facet normal -3.603393e-01 -9.328213e-01 0.000000e+00
      outer loop
         vertex -3.563436e+00 -2.992938e+00 0.000000e+00
         vertex -3.379393e+00 -3.064032e+00 0.000000e+00
         vertex -3.379393e+00 -3.064032e+00 6.000000e+00
      endloop
   endfacet
   facet normal -3.636400e-01 -9.315396e-01 0.000000e+00
      outer loop
         vertex -3.228461e+00 -3.122818e+00 0.000000e+00
         vertex -3.036280e+00 -3.197838e+00 0.000000e+00
         vertex -3.036280e+00 -3.197838e+00 6.000000e+00
      endloop
   endfacet
   facet normal -3.595770e-01 -9.331154e-01 0.000000e+00
      outer loop
         vertex -2.881497e+00 -3.258043e+00 0.000000e+00
         vertex -2.707284e+00 -3.325176e+00 0.000000e+00
         vertex -2.707284e+00 -3.325176e+00 6.000000e+00
      endloop
   endfacet
   facet normal -3.370198e-01 -9.414976e-01 0.000000e+00
      outer loop
         vertex -2.446123e+00 -3.423685e+00 0.000000e+00
         vertex -2.053158e+00 -3.564351e+00 0.000000e+00
         vertex -2.053158e+00 -3.564351e+00 6.000000e+00
      endloop
   endfacet
   facet normal -2.109052e-01 -9.775065e-01 0.000000e+00
      outer loop
         vertex -1.458108e+00 -3.751103e+00 0.000000e+00
         vertex -5.447659e-01 -3.948165e+00 0.000000e+00
         vertex -5.447659e-01 -3.948165e+00 6.000000e+00
      endloop
   endfacet
   facet normal -9.472367e-02 -9.955036e-01 -0.000000e+00
      outer loop
         vertex 4.249243e-10 -4.000000e+00 0.000000e+00
         vertex 4.249243e-10 -4.000000e+00 6.000000e+00
         vertex -5.447659e-01 -3.948165e+00 0.000000e+00
      endloop
   endfacet
   facet normal -2.994421e-01 -9.541145e-01 -0.000000e+00
      outer loop
         vertex -1.458108e+00 -3.751103e+00 6.000000e+00
         vertex -2.053158e+00 -3.564351e+00 6.000000e+00
         vertex -2.053158e+00 -3.564351e+00 0.000000e+00
      endloop
   endfacet
   facet normal -3.529238e-01 -9.356521e-01 -0.000000e+00
      outer loop
         vertex -2.446123e+00 -3.423685e+00 6.000000e+00
         vertex -2.707284e+00 -3.325176e+00 6.000000e+00
         vertex -2.707284e+00 -3.325176e+00 0.000000e+00
      endloop
   endfacet
   facet normal -3.625047e-01 -9.319820e-01 -0.000000e+00
      outer loop
         vertex -2.881497e+00 -3.258043e+00 6.000000e+00
         vertex -3.036280e+00 -3.197838e+00 6.000000e+00
         vertex -3.036280e+00 -3.197838e+00 0.000000e+00
      endloop
   endfacet
   facet normal -3.629279e-01 -9.318172e-01 -0.000000e+00
      outer loop
         vertex -3.228461e+00 -3.122818e+00 6.000000e+00
         vertex -3.379393e+00 -3.064032e+00 6.000000e+00
         vertex -3.379393e+00 -3.064032e+00 0.000000e+00
      endloop
   endfacet
   facet normal -3.569411e-01 -9.341269e-01 -0.000000e+00
      outer loop
         vertex -3.563436e+00 -2.992938e+00 6.000000e+00
         vertex -3.655583e+00 -2.957728e+00 6.000000e+00
         vertex -3.655583e+00 -2.957728e+00 0.000000e+00
      endloop
   endfacet
   facet normal -3.134406e-01 -9.496078e-01 -0.000000e+00
      outer loop
         vertex -3.701695e+00 -2.940231e+00 6.000000e+00
         vertex -5.405736e+00 -2.377772e+00 6.000000e+00
         vertex -5.405736e+00 -2.377772e+00 0.000000e+00
      endloop
   endfacet
   facet normal -1.440984e-01 -9.895634e-01 0.000000e+00
      outer loop
         vertex -8.000000e+00 -2.000000e+00 6.000000e+00
         vertex -5.405736e+00 -2.377772e+00 0.000000e+00
         vertex -5.405736e+00 -2.377772e+00 6.000000e+00
      endloop
   endfacet
   facet normal -3.636400e-01 -9.315396e-01 0.000000e+00
      outer loop
         vertex -3.228461e+00 -3.122818e+00 0.000000e+00
         vertex -3.036280e+00 -3.197838e+00 6.000000e+00
         vertex -3.228461e+00 -3.122818e+00 6.000000e+00
      endloop
   endfacet
   facet normal -2.109052e-01 -9.775065e-01 0.000000e+00
      outer loop
         vertex -1.458108e+00 -3.751103e+00 0.000000e+00
         vertex -5.447659e-01 -3.948165e+00 6.000000e+00
         vertex -1.458108e+00 -3.751103e+00 6.000000e+00
      endloop
   endfacet
   facet normal -2.994421e-01 -9.541145e-01 0.000000e+00
      outer loop
         vertex -1.458108e+00 -3.751103e+00 6.000000e+00
         vertex -2.053158e+00 -3.564351e+00 0.000000e+00
         vertex -1.458108e+00 -3.751103e+00 0.000000e+00
      endloop
   endfacet
   facet normal -3.629279e-01 -9.318172e-01 0.000000e+00
      outer loop
         vertex -3.228461e+00 -3.122818e+00 6.000000e+00
         vertex -3.379393e+00 -3.064032e+00 0.000000e+00
         vertex -3.228461e+00 -3.122818e+00 0.000000e+00
      endloop
   endfacet
   facet normal -3.134406e-01 -9.496078e-01 0.000000e+00
      outer loop
         vertex -5.405736e+00 -2.377772e+00 0.000000e+00
         vertex -3.701695e+00 -2.940231e+00 0.000000e+00
         vertex -3.701695e+00 -2.940231e+00 6.000000e+00
      endloop
   endfacet
   facet normal -3.625047e-01 -9.319820e-01 0.000000e+00
      outer loop
         vertex -3.036280e+00 -3.197838e+00 0.000000e+00
         vertex -2.881497e+00 -3.258043e+00 0.000000e+00
         vertex -2.881497e+00 -3.258043e+00 6.000000e+00
      endloop
   endfacet
   facet normal -9.472367e-02 -9.955036e-01 -0.000000e+00
      outer loop
         vertex 4.249243e-10 -4.000000e+00 6.000000e+00
         vertex -5.447659e-01 -3.948165e+00 6.000000e+00
         vertex -5.447659e-01 -3.948165e+00 0.000000e+00
      endloop
   endfacet
   facet normal -3.595770e-01 -9.331154e-01 -0.000000e+00
      outer loop
         vertex -2.707284e+00 -3.325176e+00 6.000000e+00
         vertex -2.881497e+00 -3.258043e+00 6.000000e+00
         vertex -2.881497e+00 -3.258043e+00 0.000000e+00
      endloop
   endfacet
   facet normal -3.547571e-01 -9.349585e-01 -0.000000e+00
      outer loop
         vertex -3.655583e+00 -2.957728e+00 6.000000e+00
         vertex -3.701695e+00 -2.940231e+00 6.000000e+00
         vertex -3.701695e+00 -2.940231e+00 0.000000e+00
      endloop
   endfacet
   facet normal -3.370198e-01 -9.414976e-01 0.000000e+00
      outer loop
         vertex -2.446123e+00 -3.423685e+00 0.000000e+00
         vertex -2.053158e+00 -3.564351e+00 6.000000e+00
         vertex -2.446123e+00 -3.423685e+00 6.000000e+00
      endloop
   endfacet
   facet normal -3.529238e-01 -9.356521e-01 -0.000000e+00
      outer loop
         vertex -2.446123e+00 -3.423685e+00 0.000000e+00
         vertex -2.446123e+00 -3.423685e+00 6.000000e+00
         vertex -2.707284e+00 -3.325176e+00 0.000000e+00
      endloop
   endfacet
   facet normal -3.569411e-01 -9.341269e-01 0.000000e+00
      outer loop
         vertex -3.655583e+00 -2.957728e+00 0.000000e+00
         vertex -3.563436e+00 -2.992938e+00 0.000000e+00
         vertex -3.563436e+00 -2.992938e+00 6.000000e+00
      endloop
   endfacet
   facet normal -3.603393e-01 -9.328213e-01 0.000000e+00
      outer loop
         vertex -3.563436e+00 -2.992938e+00 0.000000e+00
         vertex -3.379393e+00 -3.064032e+00 6.000000e+00
         vertex -3.563436e+00 -2.992938e+00 6.000000e+00
      endloop
   endfacet
   facet normal -3.090170e-01 9.510565e-01 0.000000e+00
      outer loop
         vertex -8.000000e+00 2.000000e+00 6.000000e+00
         vertex -8.000000e+00 2.000000e+00 0.000000e+00
         vertex -9.175570e+00 1.618034e+00 0.000000e+00
      endloop
   endfacet
   facet normal -1.000000e+00 0.000000e+00 0.000000e+00
      outer loop
         vertex -9.902113e+00 6.180340e-01 0.000000e+00
         vertex -9.902113e+00 -6.180340e-01 0.000000e+00
         vertex -9.902113e+00 -6.180340e-01 6.000000e+00
      endloop
   endfacet
   facet normal -3.090170e-01 -9.510565e-01 0.000000e+00
      outer loop
         vertex -9.175570e+00 -1.618034e+00 0.000000e+00
         vertex -8.000000e+00 -2.000000e+00 0.000000e+00
         vertex -8.000000e+00 -2.000000e+00 6.000000e+00
      endloop
   endfacet
   facet normal -8.090170e-01 -5.877852e-01 -0.000000e+00
      outer loop
         vertex -9.175570e+00 -1.618034e+00 6.000000e+00
         vertex -9.902113e+00 -6.180340e-01 6.000000e+00
         vertex -9.902113e+00 -6.180340e-01 0.000000e+00
      endloop
   endfacet
   facet normal -8.090170e-01 5.877852e-01 0.000000e+00
      outer loop
         vertex -9.902113e+00 6.180340e-01 6.000000e+00
         vertex -9.175570e+00 1.618034e+00 6.000000e+00
         vertex -9.175570e+00 1.618034e+00 0.000000e+00
      endloop
   endfacet
   facet normal -3.090170e-01 9.510565e-01 0.000000e+00
      outer loop
         vertex -8.000000e+00 2.000000e+00 6.000000e+00
         vertex -9.175570e+00 1.618034e+00 0.000000e+00
         vertex -9.175570e+00 1.618034e+00 6.000000e+00
      endloop
   endfacet
   facet normal -8.090170e-01 -5.877852e-01 0.000000e+00
      outer loop
         vertex -9.175570e+00 -1.618034e+00 6.000000e+00
         vertex -9.902113e+00 -6.180340e-01 0.000000e+00
         vertex -9.175570e+00 -1.618034e+00 0.000000e+00
      endloop
   endfacet
   facet normal -8.090170e-01 5.877852e-01 0.000000e+00
      outer loop
         vertex -9.175570e+00 1.618034e+00 0.000000e+00
         vertex -9.902113e+00 6.180340e-01 0.000000e+00
         vertex -9.902113e+00 6.180340e-01 6.000000e+00
      endloop
   endfacet
   facet normal -1.000000e+00 -0.000000e+00 -0.000000e+00
      outer loop
         vertex -9.902113e+00 -6.180340e-01 6.000000e+00
         vertex -9.902113e+00 6.180340e-01 6.000000e+00
         vertex -9.902113e+00 6.180340e-01 0.000000e+00
      endloop
   endfacet
   facet normal -3.090170e-01 -9.510565e-01 0.000000e+00
      outer loop
         vertex -9.175570e+00 -1.618034e+00 6.000000e+00
         vertex -9.175570e+00 -1.618034e+00 0.000000e+00
         vertex -8.000000e+00 -2.000000e+00 6.000000e+00
      endloop
   endfacet
   facet normal -1.815334e-01 9.833848e-01 0.000000e+00
      outer loop
         vertex 1.224647e-15 4.000000e+00 6.000000e+00
         vertex 1.224647e-15 4.000000e+00 0.000000e+00
         vertex -1.646945e+00 3.695973e+00 0.000000e+00
      endloop
   endfacet
   facet normal -3.548382e-01 9.349277e-01 0.000000e+00
      outer loop
         vertex -2.440696e+00 3.425697e+00 0.000000e+00
         vertex -2.834638e+00 3.276182e+00 0.000000e+00
         vertex -2.834638e+00 3.276182e+00 6.000000e+00
      endloop
   endfacet
   facet normal -3.636330e-01 9.315423e-01 0.000000e+00
      outer loop
         vertex -3.031999e+00 3.199508e+00 0.000000e+00
         vertex -3.190040e+00 3.137815e+00 0.000000e+00
         vertex -3.190040e+00 3.137815e+00 6.000000e+00
      endloop
   endfacet
   facet normal -3.602924e-01 9.328394e-01 0.000000e+00
      outer loop
         vertex -3.395338e+00 3.057842e+00 0.000000e+00
         vertex -3.554327e+00 2.996435e+00 0.000000e+00
         vertex -3.554327e+00 2.996435e+00 6.000000e+00
      endloop
   endfacet
   facet normal -3.508276e-01 9.364401e-01 0.000000e+00
      outer loop
         vertex -3.747835e+00 2.922816e+00 0.000000e+00
         vertex -3.826809e+00 2.893229e+00 0.000000e+00
         vertex -3.826809e+00 2.893229e+00 6.000000e+00
      endloop
   endfacet
   facet normal -3.360153e-01 9.418565e-01 0.000000e+00
      outer loop
         vertex -3.985012e+00 2.834846e+00 0.000000e+00
         vertex -4.302474e+00 2.721589e+00 0.000000e+00
         vertex -4.302474e+00 2.721589e+00 6.000000e+00
      endloop
   endfacet
   facet normal -2.463479e-01 9.691815e-01 0.000000e+00
      outer loop
         vertex -4.941935e+00 2.511857e+00 0.000000e+00
         vertex -6.241444e+00 2.181546e+00 0.000000e+00
         vertex -6.241444e+00 2.181546e+00 6.000000e+00
      endloop
   endfacet
   facet normal -1.026900e-01 9.947134e-01 0.000000e+00
      outer loop
         vertex -8.000000e+00 2.000000e+00 0.000000e+00
         vertex -8.000000e+00 2.000000e+00 6.000000e+00
         vertex -6.241444e+00 2.181546e+00 0.000000e+00
      endloop
   endfacet
   facet normal -3.116478e-01 9.501977e-01 0.000000e+00
      outer loop
         vertex -4.941935e+00 2.511857e+00 6.000000e+00
         vertex -4.302474e+00 2.721589e+00 6.000000e+00
         vertex -4.302474e+00 2.721589e+00 0.000000e+00
      endloop
   endfacet
   facet normal -3.462147e-01 9.381553e-01 0.000000e+00
      outer loop
         vertex -3.985012e+00 2.834846e+00 6.000000e+00
         vertex -3.826809e+00 2.893229e+00 6.000000e+00
         vertex -3.826809e+00 2.893229e+00 0.000000e+00
      endloop
   endfacet
   facet normal -3.555818e-01 9.346451e-01 0.000000e+00
      outer loop
         vertex -3.747835e+00 2.922816e+00 6.000000e+00
         vertex -3.554327e+00 2.996435e+00 6.000000e+00
         vertex -3.554327e+00 2.996435e+00 0.000000e+00
      endloop
   endfacet
   facet normal -3.629825e-01 9.317960e-01 0.000000e+00
      outer loop
         vertex -3.395338e+00 3.057842e+00 6.000000e+00
         vertex -3.190040e+00 3.137815e+00 6.000000e+00
         vertex -3.190040e+00 3.137815e+00 0.000000e+00
      endloop
   endfacet
   facet normal -3.621275e-01 9.321286e-01 0.000000e+00
      outer loop
         vertex -3.031999e+00 3.199508e+00 6.000000e+00
         vertex -2.834638e+00 3.276182e+00 6.000000e+00
         vertex -2.834638e+00 3.276182e+00 0.000000e+00
      endloop
   endfacet
   facet normal -3.223313e-01 9.466269e-01 0.000000e+00
      outer loop
         vertex -2.440696e+00 3.425697e+00 6.000000e+00
         vertex -1.646945e+00 3.695973e+00 6.000000e+00
         vertex -1.646945e+00 3.695973e+00 0.000000e+00
      endloop
   endfacet
   facet normal -1.815334e-01 9.833848e-01 0.000000e+00
      outer loop
         vertex 1.224647e-15 4.000000e+00 6.000000e+00
         vertex -1.646945e+00 3.695973e+00 0.000000e+00
         vertex -1.646945e+00 3.695973e+00 6.000000e+00
      endloop
   endfacet
   facet normal -3.602924e-01 9.328394e-01 0.000000e+00
      outer loop
         vertex -3.395338e+00 3.057842e+00 0.000000e+00
         vertex -3.554327e+00 2.996435e+00 6.000000e+00
         vertex -3.395338e+00 3.057842e+00 6.000000e+00
      endloop
   endfacet
   facet normal -2.463479e-01 9.691815e-01 0.000000e+00
      outer loop
         vertex -4.941935e+00 2.511857e+00 0.000000e+00
         vertex -6.241444e+00 2.181546e+00 6.000000e+00
         vertex -4.941935e+00 2.511857e+00 6.000000e+00
      endloop
   endfacet
   facet normal -3.116478e-01 9.501977e-01 0.000000e+00
      outer loop
         vertex -4.941935e+00 2.511857e+00 6.000000e+00
         vertex -4.302474e+00 2.721589e+00 0.000000e+00
         vertex -4.941935e+00 2.511857e+00 0.000000e+00
      endloop
   endfacet
   facet normal -3.629825e-01 9.317960e-01 0.000000e+00
      outer loop
         vertex -3.395338e+00 3.057842e+00 6.000000e+00
         vertex -3.190040e+00 3.137815e+00 0.000000e+00
         vertex -3.395338e+00 3.057842e+00 0.000000e+00
      endloop
   endfacet
   facet normal -3.223313e-01 9.466269e-01 0.000000e+00
      outer loop
         vertex -1.646945e+00 3.695973e+00 0.000000e+00
         vertex -2.440696e+00 3.425697e+00 0.000000e+00
         vertex -2.440696e+00 3.425697e+00 6.000000e+00
      endloop
   endfacet
   facet normal -3.555818e-01 9.346451e-01 0.000000e+00
      outer loop
         vertex -3.554327e+00 2.996435e+00 0.000000e+00
         vertex -3.747835e+00 2.922816e+00 0.000000e+00
         vertex -3.747835e+00 2.922816e+00 6.000000e+00
      endloop
   endfacet
   facet normal -1.026900e-01 9.947134e-01 0.000000e+00
      outer loop
         vertex -8.000000e+00 2.000000e+00 6.000000e+00
         vertex -6.241444e+00 2.181546e+00 6.000000e+00
         vertex -6.241444e+00 2.181546e+00 0.000000e+00
      endloop
   endfacet
   facet normal -3.508276e-01 9.364401e-01 0.000000e+00
      outer loop
         vertex -3.826809e+00 2.893229e+00 6.000000e+00
         vertex -3.747835e+00 2.922816e+00 6.000000e+00
         vertex -3.747835e+00 2.922816e+00 0.000000e+00
      endloop
   endfacet
   facet normal -3.548382e-01 9.349277e-01 0.000000e+00
      outer loop
         vertex -2.834638e+00 3.276182e+00 6.000000e+00
         vertex -2.440696e+00 3.425697e+00 6.000000e+00
         vertex -2.440696e+00 3.425697e+00 0.000000e+00
      endloop
   endfacet
   facet normal -3.360153e-01 9.418565e-01 0.000000e+00
      outer loop
         vertex -3.985012e+00 2.834846e+00 0.000000e+00
         vertex -4.302474e+00 2.721589e+00 6.000000e+00
         vertex -3.985012e+00 2.834846e+00 6.000000e+00
      endloop
   endfacet
   facet normal -3.462147e-01 9.381553e-01 0.000000e+00
      outer loop
         vertex -3.985012e+00 2.834846e+00 0.000000e+00
         vertex -3.985012e+00 2.834846e+00 6.000000e+00
         vertex -3.826809e+00 2.893229e+00 0.000000e+00
      endloop
   endfacet
   facet normal -3.621275e-01 9.321286e-01 0.000000e+00
      outer loop
         vertex -2.834638e+00 3.276182e+00 0.000000e+00
         vertex -3.031999e+00 3.199508e+00 0.000000e+00
         vertex -3.031999e+00 3.199508e+00 6.000000e+00
      endloop
   endfacet
   facet normal -3.636330e-01 9.315423e-01 0.000000e+00
      outer loop
         vertex -3.031999e+00 3.199508e+00 0.000000e+00
         vertex -3.190040e+00 3.137815e+00 6.000000e+00
         vertex -3.031999e+00 3.199508e+00 6.000000e+00
      endloop
   endfacet
   facet normal 2.225210e-01 -9.749279e-01 0.000000e+00
      outer loop
         vertex 4.249243e-10 -4.000000e+00 6.000000e+00
         vertex 4.249243e-10 -4.000000e+00 0.000000e+00
         vertex 1.735535e+00 -3.603875e+00 0.000000e+00
      endloop
   endfacet
   facet normal 9.009689e-01 -4.338837e-01 0.000000e+00
      outer loop
         vertex 3.127326e+00 -2.493959e+00 0.000000e+00
         vertex 3.899712e+00 -8.900837e-01 0.000000e+00
         vertex 3.899712e+00 -8.900837e-01 6.000000e+00
      endloop
   endfacet
   facet normal 9.009689e-01 4.338837e-01 -0.000000e+00
      outer loop
         vertex 3.899712e+00 8.900837e-01 0.000000e+00
         vertex 3.127326e+00 2.493959e+00 0.000000e+00
         vertex 3.127326e+00 2.493959e+00 6.000000e+00
      endloop
   endfacet
   facet normal 2.225210e-01 9.749279e-01 -0.000000e+00
      outer loop
         vertex 1.735535e+00 3.603875e+00 0.000000e+00
         vertex 1.224647e-15 4.000000e+00 0.000000e+00
         vertex 1.224647e-15 4.000000e+00 6.000000e+00
      endloop
   endfacet
   facet normal 6.234897e-01 7.818315e-01 0.000000e+00
      outer loop
         vertex 1.735535e+00 3.603875e+00 6.000000e+00
         vertex 3.127326e+00 2.493959e+00 6.000000e+00
         vertex 3.127326e+00 2.493959e+00 0.000000e+00
      endloop
   endfacet
   facet normal 1.000000e+00 -0.000000e+00 0.000000e+00
      outer loop
         vertex 3.899712e+00 8.900837e-01 6.000000e+00
         vertex 3.899712e+00 -8.900837e-01 6.000000e+00
         vertex 3.899712e+00 -8.900837e-01 0.000000e+00
      endloop
   endfacet
   facet normal 6.234897e-01 -7.818315e-01 0.000000e+00
      outer loop
         vertex 3.127326e+00 -2.493959e+00 6.000000e+00
         vertex 1.735535e+00 -3.603875e+00 6.000000e+00
         vertex 1.735535e+00 -3.603875e+00 0.000000e+00
      endloop
   endfacet
   facet normal 2.225210e-01 -9.749279e-01 0.000000e+00
      outer loop
         vertex 4.249243e-10 -4.000000e+00 6.000000e+00
         vertex 1.735535e+00 -3.603875e+00 0.000000e+00
         vertex 1.735535e+00 -3.603875e+00 6.000000e+00
      endloop
   endfacet
   facet normal 2.225210e-01 9.749279e-01 0.000000e+00
      outer loop
         vertex 1.735535e+00 3.603875e+00 0.000000e+00
         vertex 1.224647e-15 4.000000e+00 6.000000e+00
         vertex 1.735535e+00 3.603875e+00 6.000000e+00
      endloop
   endfacet
   facet normal 6.234897e-01 -7.818315e-01 0.000000e+00
      outer loop
         vertex 3.127326e+00 -2.493959e+00 6.000000e+00
         vertex 1.735535e+00 -3.603875e+00 0.000000e+00
         vertex 3.127326e+00 -2.493959e+00 0.000000e+00
      endloop
   endfacet
   facet normal 1.000000e+00 0.000000e+00 -0.000000e+00
      outer loop
         vertex 3.899712e+00 -8.900837e-01 0.000000e+00
         vertex 3.899712e+00 8.900837e-01 0.000000e+00
         vertex 3.899712e+00 8.900837e-01 6.000000e+00
      endloop
   endfacet
   facet normal 9.009689e-01 4.338837e-01 0.000000e+00
      outer loop
         vertex 3.127326e+00 2.493959e+00 6.000000e+00
         vertex 3.899712e+00 8.900837e-01 6.000000e+00
         vertex 3.899712e+00 8.900837e-01 0.000000e+00
      endloop
   endfacet
   facet normal 9.009689e-01 -4.338837e-01 0.000000e+00
      outer loop
         vertex 3.127326e+00 -2.493959e+00 0.000000e+00
         vertex 3.899712e+00 -8.900837e-01 6.000000e+00
         vertex 3.127326e+00 -2.493959e+00 6.000000e+00
      endloop
   endfacet
   facet normal 6.234897e-01 7.818315e-01 -0.000000e+00
      outer loop
         vertex 3.127326e+00 2.493959e+00 0.000000e+00
         vertex 1.735535e+00 3.603875e+00 0.000000e+00
         vertex 1.735535e+00 3.603875e+00 6.000000e+00
      endloop
   endfacet
   facet normal 2.588191e-01 -9.659258e-01 -2.317784e-17
      outer loop
         vertex -1.462500e+00 2.533124e+00 2.000000e+00
         vertex 3.673940e-16 2.925000e+00 2.000000e+00
         vertex 7.256032e-16 2.925000e+00 6.000000e+00
      endloop
   endfacet
   facet normal 9.659258e-01 -2.588191e-01 0.000000e+00
      outer loop
         vertex -2.925000e+00 -1.882894e-16 6.000000e+00
         vertex -2.925000e+00 -1.882894e-16 2.000000e+00
         vertex -2.533124e+00 1.462500e+00 2.000000e+00
      endloop
   endfacet
   facet normal 7.071068e-01 7.071068e-01 -0.000000e+00
      outer loop
         vertex -1.462500e+00 -2.533124e+00 6.000000e+00
         vertex -1.462500e+00 -2.533124e+00 2.000000e+00
         vertex -2.533124e+00 -1.462500e+00 2.000000e+00
      endloop
   endfacet
   facet normal -2.588191e-01 9.659258e-01 0.000000e+00
      outer loop
         vertex -1.289776e-15 -2.925000e+00 6.000000e+00
         vertex 1.462500e+00 -2.533124e+00 2.000000e+00
         vertex -1.289776e-15 -2.925000e+00 2.000000e+00
      endloop
   endfacet
   facet normal -9.659258e-01 2.588191e-01 0.000000e+00
      outer loop
         vertex 2.533124e+00 -1.462500e+00 6.000000e+00
         vertex 2.925000e+00 -9.047078e-16 2.000000e+00
         vertex 2.533124e+00 -1.462500e+00 2.000000e+00
      endloop
   endfacet
   facet normal -7.071068e-01 -7.071068e-01 0.000000e+00
      outer loop
         vertex 1.462500e+00 2.533124e+00 6.000000e+00
         vertex 1.462500e+00 2.533124e+00 2.000000e+00
         vertex 2.533124e+00 1.462500e+00 2.000000e+00
      endloop
   endfacet
   facet normal -2.588191e-01 -9.659258e-01 2.317784e-17
      outer loop
         vertex 1.462500e+00 2.533124e+00 2.000000e+00
         vertex 7.256032e-16 2.925000e+00 6.000000e+00
         vertex 3.673940e-16 2.925000e+00 2.000000e+00
      endloop
   endfacet
   facet normal -9.659258e-01 -2.588191e-01 -0.000000e+00
      outer loop
         vertex 2.925000e+00 -9.047078e-16 2.000000e+00
         vertex 2.925000e+00 -9.047078e-16 6.000000e+00
         vertex 2.533124e+00 1.462500e+00 6.000000e+00
      endloop
   endfacet
   facet normal -7.071068e-01 7.071068e-01 0.000000e+00
      outer loop
         vertex 1.462500e+00 -2.533124e+00 2.000000e+00
         vertex 1.462500e+00 -2.533124e+00 6.000000e+00
         vertex 2.533124e+00 -1.462500e+00 6.000000e+00
      endloop
   endfacet
   facet normal 2.588191e-01 9.659258e-01 0.000000e+00
      outer loop
         vertex -1.462500e+00 -2.533124e+00 2.000000e+00
         vertex -1.462500e+00 -2.533124e+00 6.000000e+00
         vertex -1.289776e-15 -2.925000e+00 6.000000e+00
      endloop
   endfacet
   facet normal 9.659258e-01 2.588191e-01 0.000000e+00
      outer loop
         vertex -2.925000e+00 -1.882894e-16 2.000000e+00
         vertex -2.925000e+00 -1.882894e-16 6.000000e+00
         vertex -2.533124e+00 -1.462500e+00 6.000000e+00
      endloop
   endfacet
   facet normal 7.071068e-01 -7.071068e-01 0.000000e+00
      outer loop
         vertex -1.462500e+00 2.533124e+00 2.000000e+00
         vertex -1.462500e+00 2.533124e+00 6.000000e+00
         vertex -2.533124e+00 1.462500e+00 6.000000e+00
      endloop
   endfacet
   facet normal 2.588191e-01 -9.659258e-01 0.000000e+00
      outer loop
         vertex -1.462500e+00 2.533124e+00 6.000000e+00
         vertex -1.462500e+00 2.533124e+00 2.000000e+00
         vertex 7.256032e-16 2.925000e+00 6.000000e+00
      endloop
   endfacet
   facet normal 2.588191e-01 9.659258e-01 0.000000e+00
      outer loop
         vertex -1.462500e+00 -2.533124e+00 2.000000e+00
         vertex -1.289776e-15 -2.925000e+00 6.000000e+00
         vertex -1.289776e-15 -2.925000e+00 2.000000e+00
      endloop
   endfacet
   facet normal -9.659258e-01 2.588191e-01 0.000000e+00
      outer loop
         vertex 2.925000e+00 -9.047078e-16 6.000000e+00
         vertex 2.925000e+00 -9.047078e-16 2.000000e+00
         vertex 2.533124e+00 -1.462500e+00 6.000000e+00
      endloop
   endfacet
   facet normal -2.588191e-01 -9.659258e-01 0.000000e+00
      outer loop
         vertex 1.462500e+00 2.533124e+00 6.000000e+00
         vertex 7.256032e-16 2.925000e+00 6.000000e+00
         vertex 1.462500e+00 2.533124e+00 2.000000e+00
      endloop
   endfacet
   facet normal 9.659258e-01 2.588191e-01 0.000000e+00
      outer loop
         vertex -2.533124e+00 -1.462500e+00 2.000000e+00
         vertex -2.925000e+00 -1.882894e-16 2.000000e+00
         vertex -2.533124e+00 -1.462500e+00 6.000000e+00
      endloop
   endfacet
   facet normal 7.071068e-01 -7.071068e-01 0.000000e+00
      outer loop
         vertex -2.533124e+00 1.462500e+00 6.000000e+00
         vertex -2.533124e+00 1.462500e+00 2.000000e+00
         vertex -1.462500e+00 2.533124e+00 2.000000e+00
      endloop
   endfacet
   facet normal -9.659258e-01 -2.588191e-01 0.000000e+00
      outer loop
         vertex 2.533124e+00 1.462500e+00 6.000000e+00
         vertex 2.533124e+00 1.462500e+00 2.000000e+00
         vertex 2.925000e+00 -9.047078e-16 2.000000e+00
      endloop
   endfacet
   facet normal -2.588191e-01 9.659258e-01 0.000000e+00
      outer loop
         vertex 1.462500e+00 -2.533124e+00 2.000000e+00
         vertex -1.289776e-15 -2.925000e+00 6.000000e+00
         vertex 1.462500e+00 -2.533124e+00 6.000000e+00
      endloop
   endfacet
   facet normal 9.659258e-01 -2.588191e-01 0.000000e+00
      outer loop
         vertex -2.533124e+00 1.462500e+00 2.000000e+00
         vertex -2.533124e+00 1.462500e+00 6.000000e+00
         vertex -2.925000e+00 -1.882894e-16 6.000000e+00
      endloop
   endfacet
   facet normal -7.071068e-01 7.071068e-01 0.000000e+00
      outer loop
         vertex 1.462500e+00 -2.533124e+00 2.000000e+00
         vertex 2.533124e+00 -1.462500e+00 6.000000e+00
         vertex 2.533124e+00 -1.462500e+00 2.000000e+00
      endloop
   endfacet
   facet normal -7.071068e-01 -7.071068e-01 0.000000e+00
      outer loop
         vertex 1.462500e+00 2.533124e+00 6.000000e+00
         vertex 2.533124e+00 1.462500e+00 2.000000e+00
         vertex 2.533124e+00 1.462500e+00 6.000000e+00
      endloop
   endfacet
   facet normal 7.071068e-01 7.071068e-01 0.000000e+00
      outer loop
         vertex -2.533124e+00 -1.462500e+00 2.000000e+00
         vertex -2.533124e+00 -1.462500e+00 6.000000e+00
         vertex -1.462500e+00 -2.533124e+00 6.000000e+00
      endloop
   endfacet
   facet normal 0.000000e+00 0.000000e+00 1.000000e+00
      outer loop
         vertex 2.533124e+00 1.462500e+00 2.000000e+00
         vertex 1.462500e+00 2.533124e+00 2.000000e+00
         vertex 3.673940e-16 2.925000e+00 2.000000e+00
      endloop
   endfacet
   facet normal 0.000000e+00 -0.000000e+00 1.000000e+00
      outer loop
         vertex 1.462500e+00 -2.533124e+00 2.000000e+00
         vertex 2.533124e+00 -1.462500e+00 2.000000e+00
         vertex 2.925000e+00 -9.047078e-16 2.000000e+00
      endloop
   endfacet
   facet normal -0.000000e+00 -0.000000e+00 1.000000e+00
      outer loop
         vertex -2.533124e+00 -1.462500e+00 2.000000e+00
         vertex -1.462500e+00 -2.533124e+00 2.000000e+00
         vertex -1.289776e-15 -2.925000e+00 2.000000e+00
      endloop
   endfacet
   facet normal 0.000000e+00 0.000000e+00 1.000000e+00
      outer loop
         vertex -2.533124e+00 -1.462500e+00 2.000000e+00
         vertex -2.533124e+00 1.462500e+00 2.000000e+00
         vertex -2.925000e+00 -1.882894e-16 2.000000e+00
      endloop
   endfacet
   facet normal 0.000000e+00 0.000000e+00 1.000000e+00
      outer loop
         vertex -2.533124e+00 -1.462500e+00 2.000000e+00
         vertex 2.533124e+00 1.462500e+00 2.000000e+00
         vertex 3.673940e-16 2.925000e+00 2.000000e+00
      endloop
   endfacet
   facet normal 0.000000e+00 0.000000e+00 1.000000e+00
      outer loop
         vertex 1.462500e+00 -2.533124e+00 2.000000e+00
         vertex -2.533124e+00 -1.462500e+00 2.000000e+00
         vertex -1.289776e-15 -2.925000e+00 2.000000e+00
      endloop
   endfacet
   facet normal 0.000000e+00 0.000000e+00 1.000000e+00
      outer loop
         vertex 1.462500e+00 -2.533124e+00 2.000000e+00
         vertex 2.533124e+00 1.462500e+00 2.000000e+00
         vertex -2.533124e+00 -1.462500e+00 2.000000e+00
      endloop
   endfacet
   facet normal 0.000000e+00 0.000000e+00 1.000000e+00
      outer loop
         vertex 1.462500e+00 -2.533124e+00 2.000000e+00
         vertex 2.925000e+00 -9.047078e-16 2.000000e+00
         vertex 2.533124e+00 1.462500e+00 2.000000e+00
      endloop
   endfacet
   facet normal 0.000000e+00 0.000000e+00 1.000000e+00
      outer loop
         vertex -2.533124e+00 -1.462500e+00 2.000000e+00
         vertex 3.673940e-16 2.925000e+00 2.000000e+00
         vertex -1.462500e+00 2.533124e+00 2.000000e+00
      endloop
   endfacet
   facet normal 0.000000e+00 0.000000e+00 1.000000e+00
      outer loop
         vertex -2.533124e+00 1.462500e+00 2.000000e+00
         vertex -2.533124e+00 -1.462500e+00 2.000000e+00
         vertex -1.462500e+00 2.533124e+00 2.000000e+00
      endloop
   endfacet
endsolid
