solid 
   facet normal 0.000000e+00 0.000000e+00 1.000000e+00
      outer loop
         vertex -1.250188e+00 8.288726e-01 3.000000e+00
         vertex -1.496903e+00 -9.634625e-02 3.000000e+00
         vertex -1.000000e+00 -1.836970e-16 3.000000e+00
      endloop
   endfacet
   facet normal 0.000000e+00 -0.000000e+00 1.000000e+00
      outer loop
         vertex -1.272624e+00 -1.172991e+01 3.000000e+00
         vertex -1.240209e+00 -1.936622e+01 3.000000e+00
         vertex 1.224647e-16 -1.000000e+00 3.000000e+00
      endloop
   endfacet
   facet normal -0.000000e+00 0.000000e+00 1.000000e+00
      outer loop
         vertex -1.241606e+00 -2.318546e+01 3.000000e+00
         vertex -1.244320e+00 -2.509653e+01 3.000000e+00
         vertex -3.828884e-01 -3.618990e+01 3.000000e+00
      endloop
   endfacet
   facet normal -0.000000e+00 0.000000e+00 1.000000e+00
      outer loop
         vertex -1.245885e+00 -2.605443e+01 3.000000e+00
         vertex -1.249493e+00 -2.830253e+01 3.000000e+00
         vertex -3.828884e-01 -3.618990e+01 3.000000e+00
      endloop
   endfacet
   facet normal -0.000000e+00 0.000000e+00 1.000000e+00
      outer loop
         vertex -1.251260e+00 -2.965849e+01 3.000000e+00
         vertex -1.252699e+00 -3.169125e+01 3.000000e+00
         vertex -1.010225e+00 -3.573616e+01 3.000000e+00
      endloop
   endfacet
   facet normal -0.000000e+00 -0.000000e+00 1.000000e+00
      outer loop
         vertex -1.250505e+00 -3.473949e+01 3.000000e+00
         vertex -1.250000e+00 -3.500000e+01 3.000000e+00
         vertex -1.010225e+00 -3.573616e+01 3.000000e+00
      endloop
   endfacet
   facet normal 0.000000e+00 0.000000e+00 1.000000e+00
      outer loop
         vertex -3.828884e-01 -3.618990e+01 3.000000e+00
         vertex 3.913354e-01 -3.618714e+01 3.000000e+00
         vertex -1.241606e+00 -2.318546e+01 3.000000e+00
      endloop
   endfacet
   facet normal 0.000000e+00 -0.000000e+00 1.000000e+00
      outer loop
         vertex 1.015419e+00 -3.572894e+01 3.000000e+00
         vertex 1.249936e+00 -3.499108e+01 3.000000e+00
         vertex 1.453285e+00 -2.334954e+01 3.000000e+00
      endloop
   endfacet
   facet normal 0.000000e+00 0.000000e+00 1.000000e+00
      outer loop
         vertex 1.536180e+00 -1.170707e+01 3.000000e+00
         vertex 1.498626e+00 -6.418210e-02 3.000000e+00
         vertex 1.000000e+00 6.123234e-17 3.000000e+00
      endloop
   endfacet
   facet normal 0.000000e+00 0.000000e+00 1.000000e+00
      outer loop
         vertex 1.232102e+00 8.555259e-01 3.000000e+00
         vertex 4.634836e-01 1.426598e+00 3.000000e+00
         vertex 7.071068e-01 7.071068e-01 3.000000e+00
      endloop
   endfacet
   facet normal -0.000000e+00 0.000000e+00 1.000000e+00
      outer loop
         vertex -4.940091e-01 1.416317e+00 3.000000e+00
         vertex -1.250188e+00 8.288726e-01 3.000000e+00
         vertex -7.071068e-01 7.071068e-01 3.000000e+00
      endloop
   endfacet
   facet normal 0.000000e+00 0.000000e+00 1.000000e+00
      outer loop
         vertex -1.224647e-16 1.000000e+00 3.000000e+00
         vertex 7.071068e-01 7.071068e-01 3.000000e+00
         vertex 4.634836e-01 1.426598e+00 3.000000e+00
      endloop
   endfacet
   facet normal -0.000000e+00 0.000000e+00 1.000000e+00
      outer loop
         vertex 1.000000e+00 6.123234e-17 3.000000e+00
         vertex 7.071068e-01 -7.071068e-01 3.000000e+00
         vertex 1.536180e+00 -1.170707e+01 3.000000e+00
      endloop
   endfacet
   facet normal 0.000000e+00 0.000000e+00 1.000000e+00
      outer loop
         vertex 1.224647e-16 -1.000000e+00 3.000000e+00
         vertex -7.071068e-01 -7.071068e-01 3.000000e+00
         vertex -1.272624e+00 -1.172991e+01 3.000000e+00
      endloop
   endfacet
   facet normal 0.000000e+00 0.000000e+00 1.000000e+00
      outer loop
         vertex -1.000000e+00 -1.836970e-16 3.000000e+00
         vertex -7.071068e-01 7.071068e-01 3.000000e+00
         vertex -1.250188e+00 8.288726e-01 3.000000e+00
      endloop
   endfacet
   facet normal -0.000000e+00 0.000000e+00 1.000000e+00
      outer loop
         vertex 1.224647e-16 -1.000000e+00 3.000000e+00
         vertex -1.240209e+00 -1.936622e+01 3.000000e+00
         vertex 1.453285e+00 -2.334954e+01 3.000000e+00
      endloop
   endfacet
   facet normal 0.000000e+00 0.000000e+00 1.000000e+00
      outer loop
         vertex -1.245885e+00 -2.605443e+01 3.000000e+00
         vertex -3.828884e-01 -3.618990e+01 3.000000e+00
         vertex -1.244320e+00 -2.509653e+01 3.000000e+00
      endloop
   endfacet
   facet normal 0.000000e+00 0.000000e+00 1.000000e+00
      outer loop
         vertex -1.250505e+00 -3.473949e+01 3.000000e+00
         vertex -1.010225e+00 -3.573616e+01 3.000000e+00
         vertex -1.252699e+00 -3.169125e+01 3.000000e+00
      endloop
   endfacet
   facet normal -0.000000e+00 0.000000e+00 1.000000e+00
      outer loop
         vertex 1.232102e+00 8.555259e-01 3.000000e+00
         vertex 7.071068e-01 7.071068e-01 3.000000e+00
         vertex 1.000000e+00 6.123234e-17 3.000000e+00
      endloop
   endfacet
   facet normal 0.000000e+00 0.000000e+00 1.000000e+00
      outer loop
         vertex 1.536180e+00 -1.170707e+01 3.000000e+00
         vertex 7.071068e-01 -7.071068e-01 3.000000e+00
         vertex 1.224647e-16 -1.000000e+00 3.000000e+00
      endloop
   endfacet
   facet normal 0.000000e+00 0.000000e+00 1.000000e+00
      outer loop
         vertex 1.453285e+00 -2.334954e+01 3.000000e+00
         vertex -1.240209e+00 -1.936622e+01 3.000000e+00
         vertex 3.913354e-01 -3.618714e+01 3.000000e+00
      endloop
   endfacet
   facet normal 0.000000e+00 0.000000e+00 1.000000e+00
      outer loop
         vertex 1.536180e+00 -1.170707e+01 3.000000e+00
         vertex 1.224647e-16 -1.000000e+00 3.000000e+00
         vertex 1.453285e+00 -2.334954e+01 3.000000e+00
      endloop
   endfacet
   facet normal 0.000000e+00 -0.000000e+00 1.000000e+00
      outer loop
         vertex -1.496903e+00 -9.634625e-02 3.000000e+00
         vertex -1.272624e+00 -1.172991e+01 3.000000e+00
         vertex -1.000000e+00 -1.836970e-16 3.000000e+00
      endloop
   endfacet
   facet normal -0.000000e+00 0.000000e+00 1.000000e+00
      outer loop
         vertex -1.249493e+00 -2.830253e+01 3.000000e+00
         vertex -1.251260e+00 -2.965849e+01 3.000000e+00
         vertex -3.828884e-01 -3.618990e+01 3.000000e+00
      endloop
   endfacet
   facet normal 0.000000e+00 -0.000000e+00 1.000000e+00
      outer loop
         vertex 3.913354e-01 -3.618714e+01 3.000000e+00
         vertex 1.015419e+00 -3.572894e+01 3.000000e+00
         vertex 1.453285e+00 -2.334954e+01 3.000000e+00
      endloop
   endfacet
   facet normal -0.000000e+00 0.000000e+00 1.000000e+00
      outer loop
         vertex 4.634836e-01 1.426598e+00 3.000000e+00
         vertex -4.940091e-01 1.416317e+00 3.000000e+00
         vertex -1.224647e-16 1.000000e+00 3.000000e+00
      endloop
   endfacet
   facet normal 0.000000e+00 0.000000e+00 1.000000e+00
      outer loop
         vertex -7.071068e-01 -7.071068e-01 3.000000e+00
         vertex -1.000000e+00 -1.836970e-16 3.000000e+00
         vertex -1.272624e+00 -1.172991e+01 3.000000e+00
      endloop
   endfacet
   facet normal 0.000000e+00 0.000000e+00 1.000000e+00
      outer loop
         vertex -1.241606e+00 -2.318546e+01 3.000000e+00
         vertex 3.913354e-01 -3.618714e+01 3.000000e+00
         vertex -1.240209e+00 -1.936622e+01 3.000000e+00
      endloop
   endfacet
   facet normal -0.000000e+00 0.000000e+00 1.000000e+00
      outer loop
         vertex 1.232102e+00 8.555259e-01 3.000000e+00
         vertex 1.000000e+00 6.123234e-17 3.000000e+00
         vertex 1.498626e+00 -6.418210e-02 3.000000e+00
      endloop
   endfacet
   facet normal 0.000000e+00 0.000000e+00 1.000000e+00
      outer loop
         vertex -1.010225e+00 -3.573616e+01 3.000000e+00
         vertex -3.828884e-01 -3.618990e+01 3.000000e+00
         vertex -1.251260e+00 -2.965849e+01 3.000000e+00
      endloop
   endfacet
   facet normal 0.000000e+00 0.000000e+00 1.000000e+00
      outer loop
         vertex -4.940091e-01 1.416317e+00 3.000000e+00
         vertex -7.071068e-01 7.071068e-01 3.000000e+00
         vertex -1.224647e-16 1.000000e+00 3.000000e+00
      endloop
   endfacet
   facet normal 0.000000e+00 0.000000e+00 -1.000000e+00
      outer loop
         vertex -1.000000e+00 -1.836970e-16 0.000000e+00
         vertex -1.272624e+00 -1.172991e+01 0.000000e+00
         vertex -1.496903e+00 -9.634625e-02 0.000000e+00
      endloop
   endfacet
   facet normal 0.000000e+00 0.000000e+00 -1.000000e+00
      outer loop
         vertex 3.913354e-01 -3.618714e+01 0.000000e+00
         vertex -1.241606e+00 -2.318546e+01 0.000000e+00
         vertex -1.240209e+00 -1.936622e+01 0.000000e+00
      endloop
   endfacet
   facet normal 0.000000e+00 0.000000e+00 -1.000000e+00
      outer loop
         vertex -3.828884e-01 -3.618990e+01 0.000000e+00
         vertex -1.245885e+00 -2.605443e+01 0.000000e+00
         vertex -1.244320e+00 -2.509653e+01 0.000000e+00
      endloop
   endfacet
   facet normal 0.000000e+00 0.000000e+00 -1.000000e+00
      outer loop
         vertex -3.828884e-01 -3.618990e+01 0.000000e+00
         vertex -1.251260e+00 -2.965849e+01 0.000000e+00
         vertex -1.249493e+00 -2.830253e+01 0.000000e+00
      endloop
   endfacet
   facet normal 0.000000e+00 0.000000e+00 -1.000000e+00
      outer loop
         vertex -1.010225e+00 -3.573616e+01 0.000000e+00
         vertex -1.250505e+00 -3.473949e+01 0.000000e+00
         vertex -1.252699e+00 -3.169125e+01 0.000000e+00
      endloop
   endfacet
   facet normal 0.000000e+00 0.000000e+00 -1.000000e+00
      outer loop
         vertex -1.250505e+00 -3.473949e+01 0.000000e+00
         vertex -1.010225e+00 -3.573616e+01 0.000000e+00
         vertex -1.250000e+00 -3.500000e+01 0.000000e+00
      endloop
   endfacet
   facet normal -0.000000e+00 0.000000e+00 -1.000000e+00
      outer loop
         vertex 1.453285e+00 -2.334954e+01 0.000000e+00
         vertex 1.015419e+00 -3.572894e+01 0.000000e+00
         vertex 3.913354e-01 -3.618714e+01 0.000000e+00
      endloop
   endfacet
   facet normal 0.000000e+00 0.000000e+00 -1.000000e+00
      outer loop
         vertex 1.015419e+00 -3.572894e+01 0.000000e+00
         vertex 1.453285e+00 -2.334954e+01 0.000000e+00
         vertex 1.249936e+00 -3.499108e+01 0.000000e+00
      endloop
   endfacet
   facet normal 0.000000e+00 -0.000000e+00 -1.000000e+00
      outer loop
         vertex 1.000000e+00 6.123234e-17 0.000000e+00
         vertex 1.232102e+00 8.555259e-01 0.000000e+00
         vertex 1.498626e+00 -6.418210e-02 0.000000e+00
      endloop
   endfacet
   facet normal 0.000000e+00 0.000000e+00 -1.000000e+00
      outer loop
         vertex -1.224647e-16 1.000000e+00 0.000000e+00
         vertex -4.940091e-01 1.416317e+00 0.000000e+00
         vertex 4.634836e-01 1.426598e+00 0.000000e+00
      endloop
   endfacet
   facet normal 0.000000e+00 0.000000e+00 -1.000000e+00
      outer loop
         vertex -1.000000e+00 -1.836970e-16 0.000000e+00
         vertex -1.496903e+00 -9.634625e-02 0.000000e+00
         vertex -1.250188e+00 8.288726e-01 0.000000e+00
      endloop
   endfacet
   facet normal 0.000000e+00 0.000000e+00 -1.000000e+00
      outer loop
         vertex 1.232102e+00 8.555259e-01 0.000000e+00
         vertex 1.000000e+00 6.123234e-17 0.000000e+00
         vertex 7.071068e-01 7.071068e-01 0.000000e+00
      endloop
   endfacet
   facet normal 4.742458e-15 6.804170e-16 -1.000000e+00
      outer loop
         vertex 1.536180e+00 -1.170707e+01 0.000000e+00
         vertex 1.224647e-16 -1.000000e+00 0.000000e+00
         vertex 7.071068e-01 -7.071068e-01 3.552714e-15
      endloop
   endfacet
   facet normal 1.148528e-14 -2.669381e-16 -1.000000e+00
      outer loop
         vertex -1.272624e+00 -1.172991e+01 0.000000e+00
         vertex -1.000000e+00 -1.836970e-16 0.000000e+00
         vertex -7.071068e-01 -7.071068e-01 3.552714e-15
      endloop
   endfacet
   facet normal -0.000000e+00 0.000000e+00 -1.000000e+00
      outer loop
         vertex -4.940091e-01 1.416317e+00 0.000000e+00
         vertex -1.224647e-16 1.000000e+00 0.000000e+00
         vertex -7.071068e-01 7.071068e-01 0.000000e+00
      endloop
   endfacet
   facet normal 0.000000e+00 0.000000e+00 -1.000000e+00
      outer loop
         vertex -3.828884e-01 -3.618990e+01 0.000000e+00
         vertex -1.241606e+00 -2.318546e+01 0.000000e+00
         vertex 3.913354e-01 -3.618714e+01 0.000000e+00
      endloop
   endfacet
   facet normal 0.000000e+00 0.000000e+00 -1.000000e+00
      outer loop
         vertex -1.245885e+00 -2.605443e+01 0.000000e+00
         vertex -3.828884e-01 -3.618990e+01 0.000000e+00
         vertex -1.249493e+00 -2.830253e+01 0.000000e+00
      endloop
   endfacet
   facet normal 0.000000e+00 0.000000e+00 -1.000000e+00
      outer loop
         vertex 1.536180e+00 -1.170707e+01 0.000000e+00
         vertex 1.000000e+00 6.123234e-17 0.000000e+00
         vertex 1.498626e+00 -6.418210e-02 0.000000e+00
      endloop
   endfacet
   facet normal -0.000000e+00 0.000000e+00 -1.000000e+00
      outer loop
         vertex 4.634836e-01 1.426598e+00 0.000000e+00
         vertex 1.232102e+00 8.555259e-01 0.000000e+00
         vertex 7.071068e-01 7.071068e-01 0.000000e+00
      endloop
   endfacet
   facet normal -4.789021e-15 5.680032e-16 -1.000000e+00
      outer loop
         vertex 1.224647e-16 -1.000000e+00 0.000000e+00
         vertex -1.272624e+00 -1.172991e+01 0.000000e+00
         vertex -7.071068e-01 -7.071068e-01 3.552714e-15
      endloop
   endfacet
   facet normal -1.092207e-14 -5.002276e-16 -1.000000e+00
      outer loop
         vertex 7.071068e-01 -7.071068e-01 3.552714e-15
         vertex 1.000000e+00 6.123234e-17 0.000000e+00
         vertex 1.536180e+00 -1.170707e+01 0.000000e+00
      endloop
   endfacet
   facet normal 0.000000e+00 0.000000e+00 -1.000000e+00
      outer loop
         vertex 1.224647e-16 -1.000000e+00 0.000000e+00
         vertex -1.240209e+00 -1.936622e+01 0.000000e+00
         vertex -1.272624e+00 -1.172991e+01 0.000000e+00
      endloop
   endfacet
   facet normal 0.000000e+00 0.000000e+00 -1.000000e+00
      outer loop
         vertex -1.010225e+00 -3.573616e+01 0.000000e+00
         vertex -1.252699e+00 -3.169125e+01 0.000000e+00
         vertex -1.251260e+00 -2.965849e+01 0.000000e+00
      endloop
   endfacet
   facet normal -0.000000e+00 0.000000e+00 -1.000000e+00
      outer loop
         vertex 1.224647e-16 -1.000000e+00 0.000000e+00
         vertex 1.536180e+00 -1.170707e+01 0.000000e+00
         vertex 1.453285e+00 -2.334954e+01 0.000000e+00
      endloop
   endfacet
   facet normal 0.000000e+00 0.000000e+00 -1.000000e+00
      outer loop
         vertex 4.634836e-01 1.426598e+00 0.000000e+00
         vertex 7.071068e-01 7.071068e-01 0.000000e+00
         vertex -1.224647e-16 1.000000e+00 0.000000e+00
      endloop
   endfacet
   facet normal 0.000000e+00 0.000000e+00 -1.000000e+00
      outer loop
         vertex 1.453285e+00 -2.334954e+01 0.000000e+00
         vertex 3.913354e-01 -3.618714e+01 0.000000e+00
         vertex -1.240209e+00 -1.936622e+01 0.000000e+00
      endloop
   endfacet
   facet normal 0.000000e+00 0.000000e+00 -1.000000e+00
      outer loop
         vertex -1.010225e+00 -3.573616e+01 0.000000e+00
         vertex -1.251260e+00 -2.965849e+01 0.000000e+00
         vertex -3.828884e-01 -3.618990e+01 0.000000e+00
      endloop
   endfacet
   facet normal 0.000000e+00 -0.000000e+00 -1.000000e+00
      outer loop
         vertex -1.244320e+00 -2.509653e+01 0.000000e+00
         vertex -1.241606e+00 -2.318546e+01 0.000000e+00
         vertex -3.828884e-01 -3.618990e+01 0.000000e+00
      endloop
   endfacet
   facet normal 0.000000e+00 0.000000e+00 -1.000000e+00
      outer loop
         vertex -7.071068e-01 7.071068e-01 0.000000e+00
         vertex -1.250188e+00 8.288726e-01 0.000000e+00
         vertex -4.940091e-01 1.416317e+00 0.000000e+00
      endloop
   endfacet
   facet normal 0.000000e+00 0.000000e+00 -1.000000e+00
      outer loop
         vertex -7.071068e-01 7.071068e-01 0.000000e+00
         vertex -1.000000e+00 -1.836970e-16 0.000000e+00
         vertex -1.250188e+00 8.288726e-01 0.000000e+00
      endloop
   endfacet
   facet normal 0.000000e+00 0.000000e+00 -1.000000e+00
      outer loop
         vertex 1.224647e-16 -1.000000e+00 0.000000e+00
         vertex 1.453285e+00 -2.334954e+01 0.000000e+00
         vertex -1.240209e+00 -1.936622e+01 0.000000e+00
      endloop
   endfacet
   facet normal -3.826835e-01 -9.238795e-01 -0.000000e+00
      outer loop
         vertex 7.071068e-01 7.071068e-01 3.000000e+00
         vertex -1.224647e-16 1.000000e+00 3.000000e+00
         vertex -1.224647e-16 1.000000e+00 0.000000e+00
      endloop
   endfacet
   facet normal -9.238795e-01 3.826835e-01 0.000000e+00
      outer loop
         vertex 7.071068e-01 -7.071068e-01 3.552714e-15
         vertex 7.071068e-01 -7.071068e-01 3.000000e+00
         vertex 1.000000e+00 6.123234e-17 3.000000e+00
      endloop
   endfacet
   facet normal 3.826835e-01 9.238795e-01 0.000000e+00
      outer loop
         vertex -7.071068e-01 -7.071068e-01 3.552714e-15
         vertex -7.071068e-01 -7.071068e-01 3.000000e+00
         vertex 1.224647e-16 -1.000000e+00 3.000000e+00
      endloop
   endfacet
   facet normal 9.238795e-01 -3.826835e-01 0.000000e+00
      outer loop
         vertex -7.071068e-01 7.071068e-01 0.000000e+00
         vertex -7.071068e-01 7.071068e-01 3.000000e+00
         vertex -1.000000e+00 -1.836970e-16 3.000000e+00
      endloop
   endfacet
   facet normal 3.826835e-01 -9.238795e-01 0.000000e+00
      outer loop
         vertex -7.071068e-01 7.071068e-01 3.000000e+00
         vertex -1.224647e-16 1.000000e+00 0.000000e+00
         vertex -1.224647e-16 1.000000e+00 3.000000e+00
      endloop
   endfacet
   facet normal 9.238795e-01 3.826835e-01 0.000000e+00
      outer loop
         vertex -1.000000e+00 -1.836970e-16 3.000000e+00
         vertex -7.071068e-01 -7.071068e-01 3.552714e-15
         vertex -1.000000e+00 -1.836970e-16 0.000000e+00
      endloop
   endfacet
   facet normal -3.826835e-01 9.238795e-01 0.000000e+00
      outer loop
         vertex 1.224647e-16 -1.000000e+00 3.000000e+00
         vertex 7.071068e-01 -7.071068e-01 3.552714e-15
         vertex 1.224647e-16 -1.000000e+00 0.000000e+00
      endloop
   endfacet
   facet normal -9.238795e-01 -3.826835e-01 0.000000e+00
      outer loop
         vertex 7.071068e-01 7.071068e-01 3.000000e+00
         vertex 7.071068e-01 7.071068e-01 0.000000e+00
         vertex 1.000000e+00 6.123234e-17 0.000000e+00
      endloop
   endfacet
   facet normal -3.826835e-01 -9.238795e-01 -0.000000e+00
      outer loop
         vertex 7.071068e-01 7.071068e-01 0.000000e+00
         vertex 7.071068e-01 7.071068e-01 3.000000e+00
         vertex -1.224647e-16 1.000000e+00 0.000000e+00
      endloop
   endfacet
   facet normal 3.826835e-01 9.238795e-01 0.000000e+00
      outer loop
         vertex 1.224647e-16 -1.000000e+00 0.000000e+00
         vertex -7.071068e-01 -7.071068e-01 3.552714e-15
         vertex 1.224647e-16 -1.000000e+00 3.000000e+00
      endloop
   endfacet
   facet normal 3.826835e-01 -9.238795e-01 0.000000e+00
      outer loop
         vertex -1.224647e-16 1.000000e+00 0.000000e+00
         vertex -7.071068e-01 7.071068e-01 3.000000e+00
         vertex -7.071068e-01 7.071068e-01 0.000000e+00
      endloop
   endfacet
   facet normal -3.826835e-01 9.238795e-01 0.000000e+00
      outer loop
         vertex 7.071068e-01 -7.071068e-01 3.000000e+00
         vertex 7.071068e-01 -7.071068e-01 3.552714e-15
         vertex 1.224647e-16 -1.000000e+00 3.000000e+00
      endloop
   endfacet
   facet normal -9.238795e-01 -3.826835e-01 -0.000000e+00
      outer loop
         vertex 1.000000e+00 6.123234e-17 0.000000e+00
         vertex 1.000000e+00 6.123234e-17 3.000000e+00
         vertex 7.071068e-01 7.071068e-01 3.000000e+00
      endloop
   endfacet
   facet normal 9.238795e-01 -3.826835e-01 0.000000e+00
      outer loop
         vertex -1.000000e+00 -1.836970e-16 3.000000e+00
         vertex -1.000000e+00 -1.836970e-16 0.000000e+00
         vertex -7.071068e-01 7.071068e-01 0.000000e+00
      endloop
   endfacet
   facet normal -9.238795e-01 3.826835e-01 0.000000e+00
      outer loop
         vertex 1.000000e+00 6.123234e-17 0.000000e+00
         vertex 7.071068e-01 -7.071068e-01 3.552714e-15
         vertex 1.000000e+00 6.123234e-17 3.000000e+00
      endloop
   endfacet
   facet normal 9.238795e-01 3.826835e-01 0.000000e+00
      outer loop
         vertex -7.071068e-01 -7.071068e-01 3.552714e-15
         vertex -1.000000e+00 -1.836970e-16 3.000000e+00
         vertex -7.071068e-01 -7.071068e-01 3.000000e+00
      endloop
   endfacet
   facet normal -9.999981e-01 -1.938364e-03 -0.000000e+00
      outer loop
         vertex -1.250000e+00 -3.500000e+01 0.000000e+00
         vertex -1.250000e+00 -3.500000e+01 3.000000e+00
         vertex -1.250505e+00 -3.473949e+01 3.000000e+00
      endloop
   endfacet
   facet normal -9.999997e-01 7.078907e-04 0.000000e+00
      outer loop
         vertex -1.252699e+00 -3.169125e+01 3.000000e+00
         vertex -1.251260e+00 -2.965849e+01 3.000000e+00
         vertex -1.251260e+00 -2.965849e+01 0.000000e+00
      endloop
   endfacet
   facet normal -9.999987e-01 1.604852e-03 0.000000e+00
      outer loop
         vertex -1.249493e+00 -2.830253e+01 3.000000e+00
         vertex -1.245885e+00 -2.605443e+01 3.000000e+00
         vertex -1.245885e+00 -2.605443e+01 0.000000e+00
      endloop
   endfacet
   facet normal -9.999990e-01 1.419797e-03 0.000000e+00
      outer loop
         vertex -1.244320e+00 -2.509653e+01 3.000000e+00
         vertex -1.241606e+00 -2.318546e+01 3.000000e+00
         vertex -1.241606e+00 -2.318546e+01 0.000000e+00
      endloop
   endfacet
   facet normal -9.999910e-01 -4.244751e-03 -0.000000e+00
      outer loop
         vertex -1.240209e+00 -1.936622e+01 3.000000e+00
         vertex -1.272624e+00 -1.172991e+01 3.000000e+00
         vertex -1.272624e+00 -1.172991e+01 0.000000e+00
      endloop
   endfacet
   facet normal -9.998142e-01 -1.927502e-02 0.000000e+00
      outer loop
         vertex -1.496903e+00 -9.634625e-02 3.000000e+00
         vertex -1.496903e+00 -9.634625e-02 0.000000e+00
         vertex -1.272624e+00 -1.172991e+01 3.000000e+00
      endloop
   endfacet
   facet normal -9.999999e-01 3.658145e-04 0.000000e+00
      outer loop
         vertex -1.240209e+00 -1.936622e+01 0.000000e+00
         vertex -1.241606e+00 -2.318546e+01 0.000000e+00
         vertex -1.241606e+00 -2.318546e+01 3.000000e+00
      endloop
   endfacet
   facet normal -9.999987e-01 1.633875e-03 0.000000e+00
      outer loop
         vertex -1.244320e+00 -2.509653e+01 0.000000e+00
         vertex -1.245885e+00 -2.605443e+01 0.000000e+00
         vertex -1.245885e+00 -2.605443e+01 3.000000e+00
      endloop
   endfacet
   facet normal -9.999992e-01 1.303516e-03 0.000000e+00
      outer loop
         vertex -1.249493e+00 -2.830253e+01 0.000000e+00
         vertex -1.251260e+00 -2.965849e+01 0.000000e+00
         vertex -1.251260e+00 -2.965849e+01 3.000000e+00
      endloop
   endfacet
   facet normal -9.999997e-01 -7.198151e-04 0.000000e+00
      outer loop
         vertex -1.252699e+00 -3.169125e+01 0.000000e+00
         vertex -1.250505e+00 -3.473949e+01 0.000000e+00
         vertex -1.250505e+00 -3.473949e+01 3.000000e+00
      endloop
   endfacet
   facet normal -9.999981e-01 -1.938364e-03 -0.000000e+00
      outer loop
         vertex -1.250000e+00 -3.500000e+01 0.000000e+00
         vertex -1.250505e+00 -3.473949e+01 3.000000e+00
         vertex -1.250505e+00 -3.473949e+01 0.000000e+00
      endloop
   endfacet
   facet normal -9.999990e-01 1.419797e-03 0.000000e+00
      outer loop
         vertex -1.244320e+00 -2.509653e+01 3.000000e+00
         vertex -1.241606e+00 -2.318546e+01 0.000000e+00
         vertex -1.244320e+00 -2.509653e+01 0.000000e+00
      endloop
   endfacet
   facet normal -9.998142e-01 -1.927502e-02 0.000000e+00
      outer loop
         vertex -1.272624e+00 -1.172991e+01 3.000000e+00
         vertex -1.496903e+00 -9.634625e-02 0.000000e+00
         vertex -1.272624e+00 -1.172991e+01 0.000000e+00
      endloop
   endfacet
   facet normal -9.999997e-01 -7.198151e-04 0.000000e+00
      outer loop
         vertex -1.252699e+00 -3.169125e+01 0.000000e+00
         vertex -1.250505e+00 -3.473949e+01 3.000000e+00
         vertex -1.252699e+00 -3.169125e+01 3.000000e+00
      endloop
   endfacet
   facet normal -9.999992e-01 1.303516e-03 0.000000e+00
      outer loop
         vertex -1.251260e+00 -2.965849e+01 3.000000e+00
         vertex -1.249493e+00 -2.830253e+01 3.000000e+00
         vertex -1.249493e+00 -2.830253e+01 0.000000e+00
      endloop
   endfacet
   facet normal -9.999999e-01 3.658145e-04 0.000000e+00
      outer loop
         vertex -1.241606e+00 -2.318546e+01 3.000000e+00
         vertex -1.240209e+00 -1.936622e+01 3.000000e+00
         vertex -1.240209e+00 -1.936622e+01 0.000000e+00
      endloop
   endfacet
   facet normal -9.999987e-01 1.604852e-03 0.000000e+00
      outer loop
         vertex -1.245885e+00 -2.605443e+01 0.000000e+00
         vertex -1.249493e+00 -2.830253e+01 0.000000e+00
         vertex -1.249493e+00 -2.830253e+01 3.000000e+00
      endloop
   endfacet
   facet normal -9.999997e-01 7.078907e-04 0.000000e+00
      outer loop
         vertex -1.252699e+00 -3.169125e+01 3.000000e+00
         vertex -1.251260e+00 -2.965849e+01 0.000000e+00
         vertex -1.252699e+00 -3.169125e+01 0.000000e+00
      endloop
   endfacet
   facet normal -9.999987e-01 1.633875e-03 0.000000e+00
      outer loop
         vertex -1.244320e+00 -2.509653e+01 3.000000e+00
         vertex -1.244320e+00 -2.509653e+01 0.000000e+00
         vertex -1.245885e+00 -2.605443e+01 3.000000e+00
      endloop
   endfacet
   facet normal -9.999910e-01 -4.244751e-03 0.000000e+00
      outer loop
         vertex -1.272624e+00 -1.172991e+01 0.000000e+00
         vertex -1.240209e+00 -1.936622e+01 0.000000e+00
         vertex -1.240209e+00 -1.936622e+01 3.000000e+00
      endloop
   endfacet
   facet normal 9.530212e-01 -3.029036e-01 0.000000e+00
      outer loop
         vertex 1.249936e+00 -3.499108e+01 0.000000e+00
         vertex 1.249936e+00 -3.499108e+01 3.000000e+00
         vertex 1.015419e+00 -3.572894e+01 0.000000e+00
      endloop
   endfacet
   facet normal 5.918179e-01 -8.060717e-01 0.000000e+00
      outer loop
         vertex 1.015419e+00 -3.572894e+01 3.000000e+00
         vertex 3.913354e-01 -3.618714e+01 3.000000e+00
         vertex 3.913354e-01 -3.618714e+01 0.000000e+00
      endloop
   endfacet
   facet normal -5.860529e-01 -8.102728e-01 -0.000000e+00
      outer loop
         vertex -3.828884e-01 -3.618990e+01 3.000000e+00
         vertex -1.010225e+00 -3.573616e+01 3.000000e+00
         vertex -1.010225e+00 -3.573616e+01 0.000000e+00
      endloop
   endfacet
   facet normal -9.508358e-01 -3.096954e-01 0.000000e+00
      outer loop
         vertex -1.250000e+00 -3.500000e+01 3.000000e+00
         vertex -1.250000e+00 -3.500000e+01 0.000000e+00
         vertex -1.010225e+00 -3.573616e+01 3.000000e+00
      endloop
   endfacet
   facet normal 3.567216e-03 -9.999936e-01 0.000000e+00
      outer loop
         vertex -3.828884e-01 -3.618990e+01 0.000000e+00
         vertex 3.913354e-01 -3.618714e+01 0.000000e+00
         vertex 3.913354e-01 -3.618714e+01 3.000000e+00
      endloop
   endfacet
   facet normal 9.530212e-01 -3.029036e-01 0.000000e+00
      outer loop
         vertex 1.015419e+00 -3.572894e+01 0.000000e+00
         vertex 1.249936e+00 -3.499108e+01 3.000000e+00
         vertex 1.015419e+00 -3.572894e+01 3.000000e+00
      endloop
   endfacet
   facet normal -9.508358e-01 -3.096954e-01 -0.000000e+00
      outer loop
         vertex -1.010225e+00 -3.573616e+01 0.000000e+00
         vertex -1.010225e+00 -3.573616e+01 3.000000e+00
         vertex -1.250000e+00 -3.500000e+01 0.000000e+00
      endloop
   endfacet
   facet normal 3.567216e-03 -9.999936e-01 0.000000e+00
      outer loop
         vertex 3.913354e-01 -3.618714e+01 3.000000e+00
         vertex -3.828884e-01 -3.618990e+01 3.000000e+00
         vertex -3.828884e-01 -3.618990e+01 0.000000e+00
      endloop
   endfacet
   facet normal 5.918179e-01 -8.060717e-01 0.000000e+00
      outer loop
         vertex 3.913354e-01 -3.618714e+01 0.000000e+00
         vertex 1.015419e+00 -3.572894e+01 0.000000e+00
         vertex 1.015419e+00 -3.572894e+01 3.000000e+00
      endloop
   endfacet
   facet normal -5.860529e-01 -8.102728e-01 -0.000000e+00
      outer loop
         vertex -3.828884e-01 -3.618990e+01 0.000000e+00
         vertex -3.828884e-01 -3.618990e+01 3.000000e+00
         vertex -1.010225e+00 -3.573616e+01 0.000000e+00
      endloop
   endfacet
   facet normal 9.999948e-01 3.225485e-03 0.000000e+00
      outer loop
         vertex 1.498626e+00 -6.418210e-02 0.000000e+00
         vertex 1.498626e+00 -6.418210e-02 3.000000e+00
         vertex 1.536180e+00 -1.170707e+01 3.000000e+00
      endloop
   endfacet
   facet normal 9.998475e-01 -1.746486e-02 0.000000e+00
      outer loop
         vertex 1.453285e+00 -2.334954e+01 3.000000e+00
         vertex 1.249936e+00 -3.499108e+01 3.000000e+00
         vertex 1.249936e+00 -3.499108e+01 0.000000e+00
      endloop
   endfacet
   facet normal 9.999747e-01 -7.119883e-03 0.000000e+00
      outer loop
         vertex 1.453285e+00 -2.334954e+01 0.000000e+00
         vertex 1.536180e+00 -1.170707e+01 0.000000e+00
         vertex 1.536180e+00 -1.170707e+01 3.000000e+00
      endloop
   endfacet
   facet normal 9.999948e-01 3.225485e-03 0.000000e+00
      outer loop
         vertex 1.498626e+00 -6.418210e-02 0.000000e+00
         vertex 1.536180e+00 -1.170707e+01 3.000000e+00
         vertex 1.536180e+00 -1.170707e+01 0.000000e+00
      endloop
   endfacet
   facet normal 9.999747e-01 -7.119883e-03 0.000000e+00
      outer loop
         vertex 1.536180e+00 -1.170707e+01 3.000000e+00
         vertex 1.453285e+00 -2.334954e+01 3.000000e+00
         vertex 1.453285e+00 -2.334954e+01 0.000000e+00
      endloop
   endfacet
   facet normal 9.998475e-01 -1.746486e-02 0.000000e+00
      outer loop
         vertex 1.453285e+00 -2.334954e+01 3.000000e+00
         vertex 1.249936e+00 -3.499108e+01 0.000000e+00
         vertex 1.453285e+00 -2.334954e+01 0.000000e+00
      endloop
   endfacet
   facet normal -9.662377e-01 2.576524e-01 0.000000e+00
      outer loop
         vertex -1.496903e+00 -9.634625e-02 0.000000e+00
         vertex -1.496903e+00 -9.634625e-02 3.000000e+00
         vertex -1.250188e+00 8.288726e-01 3.000000e+00
      endloop
   endfacet
   facet normal -1.073676e-02 9.999424e-01 0.000000e+00
      outer loop
         vertex -4.940091e-01 1.416317e+00 3.000000e+00
         vertex 4.634836e-01 1.426598e+00 3.000000e+00
         vertex 4.634836e-01 1.426598e+00 0.000000e+00
      endloop
   endfacet
   facet normal 9.604825e-01 2.783403e-01 0.000000e+00
      outer loop
         vertex 1.232102e+00 8.555259e-01 3.000000e+00
         vertex 1.498626e+00 -6.418210e-02 3.000000e+00
         vertex 1.232102e+00 8.555259e-01 0.000000e+00
      endloop
   endfacet
   facet normal 9.604825e-01 2.783403e-01 0.000000e+00
      outer loop
         vertex 1.498626e+00 -6.418210e-02 0.000000e+00
         vertex 1.232102e+00 8.555259e-01 0.000000e+00
         vertex 1.498626e+00 -6.418210e-02 3.000000e+00
      endloop
   endfacet
   facet normal -6.134887e-01 7.897035e-01 0.000000e+00
      outer loop
         vertex -4.940091e-01 1.416317e+00 0.000000e+00
         vertex -1.250188e+00 8.288726e-01 0.000000e+00
         vertex -1.250188e+00 8.288726e-01 3.000000e+00
      endloop
   endfacet
   facet normal -9.662377e-01 2.576524e-01 0.000000e+00
      outer loop
         vertex -1.496903e+00 -9.634625e-02 0.000000e+00
         vertex -1.250188e+00 8.288726e-01 3.000000e+00
         vertex -1.250188e+00 8.288726e-01 0.000000e+00
      endloop
   endfacet
   facet normal 5.963905e-01 8.026944e-01 -0.000000e+00
      outer loop
         vertex 1.232102e+00 8.555259e-01 3.000000e+00
         vertex 1.232102e+00 8.555259e-01 0.000000e+00
         vertex 4.634836e-01 1.426598e+00 3.000000e+00
      endloop
   endfacet
   facet normal -6.134887e-01 7.897035e-01 0.000000e+00
      outer loop
         vertex -1.250188e+00 8.288726e-01 3.000000e+00
         vertex -4.940091e-01 1.416317e+00 3.000000e+00
         vertex -4.940091e-01 1.416317e+00 0.000000e+00
      endloop
   endfacet
   facet normal -1.073676e-02 9.999424e-01 0.000000e+00
      outer loop
         vertex 4.634836e-01 1.426598e+00 0.000000e+00
         vertex -4.940091e-01 1.416317e+00 0.000000e+00
         vertex -4.940091e-01 1.416317e+00 3.000000e+00
      endloop
   endfacet
   facet normal 5.963905e-01 8.026944e-01 0.000000e+00
      outer loop
         vertex 4.634836e-01 1.426598e+00 3.000000e+00
         vertex 1.232102e+00 8.555259e-01 0.000000e+00
         vertex 4.634836e-01 1.426598e+00 0.000000e+00
      endloop
   endfacet
endsolid
