solid 
   facet normal -0.000000e+00 0.000000e+00 -1.000000e+00
      outer loop
         vertex 2.000000e+00 -1.000000e+00 0.000000e+00
         vertex 1.322982e+01 -1.256519e+00 0.000000e+00
         vertex 1.596260e+00 -1.480797e+00 0.000000e+00
      endloop
   endfacet
   facet normal 0.000000e+00 0.000000e+00 -1.000000e+00
      outer loop
         vertex 3.000000e+00 -3.673940e-16 0.000000e+00
         vertex 2.468538e+01 -1.225501e+00 0.000000e+00
         vertex 2.086614e+01 -1.224104e+00 0.000000e+00
      endloop
   endfacet
   facet normal 0.000000e+00 0.000000e+00 -1.000000e+00
      outer loop
         vertex 4.493992e+01 -3.714672e-01 0.000000e+00
         vertex 2.755434e+01 -1.229780e+00 0.000000e+00
         vertex 2.659644e+01 -1.228215e+00 0.000000e+00
      endloop
   endfacet
   facet normal 0.000000e+00 0.000000e+00 -1.000000e+00
      outer loop
         vertex 4.493992e+01 -3.714672e-01 0.000000e+00
         vertex 3.115840e+01 -1.235155e+00 0.000000e+00
         vertex 2.980244e+01 -1.233387e+00 0.000000e+00
      endloop
   endfacet
   facet normal -0.000000e+00 0.000000e+00 -1.000000e+00
      outer loop
         vertex 4.493992e+01 -3.714672e-01 0.000000e+00
         vertex 3.623940e+01 -1.234400e+00 0.000000e+00
         vertex 3.319117e+01 -1.236594e+00 0.000000e+00
      endloop
   endfacet
   facet normal 0.000000e+00 0.000000e+00 -1.000000e+00
      outer loop
         vertex 4.448619e+01 -9.988039e-01 0.000000e+00
         vertex 4.375002e+01 -1.238579e+00 0.000000e+00
         vertex 3.649991e+01 -1.233895e+00 0.000000e+00
      endloop
   endfacet
   facet normal 0.000000e+00 -0.000000e+00 -1.000000e+00
      outer loop
         vertex 2.659644e+01 -1.228215e+00 0.000000e+00
         vertex 4.493716e+01 4.027566e-01 0.000000e+00
         vertex 4.493992e+01 -3.714672e-01 0.000000e+00
      endloop
   endfacet
   facet normal -0.000000e+00 -0.000000e+00 -1.000000e+00
      outer loop
         vertex 3.649100e+01 1.266042e+00 0.000000e+00
         vertex 4.374110e+01 1.261358e+00 0.000000e+00
         vertex 4.447896e+01 1.026840e+00 0.000000e+00
      endloop
   endfacet
   facet normal 0.000000e+00 -0.000000e+00 -1.000000e+00
      outer loop
         vertex 2.707107e+00 7.071068e-01 0.000000e+00
         vertex 1.320698e+01 1.552285e+00 0.000000e+00
         vertex 2.484946e+01 1.469390e+00 0.000000e+00
      endloop
   endfacet
   facet normal 0.000000e+00 0.000000e+00 -1.000000e+00
      outer loop
         vertex 2.000000e+00 1.000000e+00 0.000000e+00
         vertex 6.443876e-01 1.248207e+00 0.000000e+00
         vertex 1.564096e+00 1.514731e+00 0.000000e+00
      endloop
   endfacet
   facet normal 0.000000e+00 0.000000e+00 -1.000000e+00
      outer loop
         vertex 1.000000e+00 -1.224647e-16 0.000000e+00
         vertex 8.359613e-02 -4.779040e-01 0.000000e+00
         vertex 7.331516e-02 4.795888e-01 0.000000e+00
      endloop
   endfacet
   facet normal 0.000000e+00 0.000000e+00 -1.000000e+00
      outer loop
         vertex 2.000000e+00 -1.000000e+00 0.000000e+00
         vertex 1.596260e+00 -1.480797e+00 0.000000e+00
         vertex 6.710410e-01 -1.234083e+00 0.000000e+00
      endloop
   endfacet
   facet normal 0.000000e+00 0.000000e+00 -1.000000e+00
      outer loop
         vertex 2.484946e+01 1.469390e+00 0.000000e+00
         vertex 3.000000e+00 -3.673940e-16 0.000000e+00
         vertex 2.707107e+00 7.071068e-01 0.000000e+00
      endloop
   endfacet
   facet normal 0.000000e+00 0.000000e+00 -1.000000e+00
      outer loop
         vertex 1.322982e+01 -1.256519e+00 0.000000e+00
         vertex 2.000000e+00 -1.000000e+00 0.000000e+00
         vertex 2.707107e+00 -7.071068e-01 0.000000e+00
      endloop
   endfacet
   facet normal 0.000000e+00 -0.000000e+00 -1.000000e+00
      outer loop
         vertex 8.359613e-02 -4.779040e-01 0.000000e+00
         vertex 1.000000e+00 -1.224647e-16 0.000000e+00
         vertex 1.292893e+00 -7.071068e-01 0.000000e+00
      endloop
   endfacet
   facet normal -0.000000e+00 0.000000e+00 -1.000000e+00
      outer loop
         vertex 6.443876e-01 1.248207e+00 0.000000e+00
         vertex 2.000000e+00 1.000000e+00 0.000000e+00
         vertex 1.292893e+00 7.071068e-01 0.000000e+00
      endloop
   endfacet
   facet normal 0.000000e+00 0.000000e+00 -1.000000e+00
      outer loop
         vertex 2.484946e+01 1.469390e+00 0.000000e+00
         vertex 2.468538e+01 -1.225501e+00 0.000000e+00
         vertex 3.000000e+00 -3.673940e-16 0.000000e+00
      endloop
   endfacet
   facet normal 0.000000e+00 0.000000e+00 -1.000000e+00
      outer loop
         vertex 2.755434e+01 -1.229780e+00 0.000000e+00
         vertex 4.493992e+01 -3.714672e-01 0.000000e+00
         vertex 2.980244e+01 -1.233387e+00 0.000000e+00
      endloop
   endfacet
   facet normal -0.000000e+00 0.000000e+00 -1.000000e+00
      outer loop
         vertex 4.493992e+01 -3.714672e-01 0.000000e+00
         vertex 4.448619e+01 -9.988039e-01 0.000000e+00
         vertex 3.649991e+01 -1.233895e+00 0.000000e+00
      endloop
   endfacet
   facet normal 0.000000e+00 0.000000e+00 -1.000000e+00
      outer loop
         vertex 2.000000e+00 1.000000e+00 0.000000e+00
         vertex 1.320698e+01 1.552285e+00 0.000000e+00
         vertex 2.707107e+00 7.071068e-01 0.000000e+00
      endloop
   endfacet
   facet normal -0.000000e+00 0.000000e+00 -1.000000e+00
      outer loop
         vertex 1.292893e+00 -7.071068e-01 0.000000e+00
         vertex 2.000000e+00 -1.000000e+00 0.000000e+00
         vertex 6.710410e-01 -1.234083e+00 0.000000e+00
      endloop
   endfacet
   facet normal 0.000000e+00 -0.000000e+00 -1.000000e+00
      outer loop
         vertex 7.331516e-02 4.795888e-01 0.000000e+00
         vertex 6.443876e-01 1.248207e+00 0.000000e+00
         vertex 1.292893e+00 7.071068e-01 0.000000e+00
      endloop
   endfacet
   facet normal 0.000000e+00 0.000000e+00 -1.000000e+00
      outer loop
         vertex 1.564096e+00 1.514731e+00 0.000000e+00
         vertex 1.320698e+01 1.552285e+00 0.000000e+00
         vertex 2.000000e+00 1.000000e+00 0.000000e+00
      endloop
   endfacet
   facet normal -0.000000e+00 0.000000e+00 -1.000000e+00
      outer loop
         vertex 3.000000e+00 -3.673940e-16 0.000000e+00
         vertex 2.086614e+01 -1.224104e+00 0.000000e+00
         vertex 1.322982e+01 -1.256519e+00 0.000000e+00
      endloop
   endfacet
   facet normal 0.000000e+00 0.000000e+00 -1.000000e+00
      outer loop
         vertex 4.493992e+01 -3.714672e-01 0.000000e+00
         vertex 3.319117e+01 -1.236594e+00 0.000000e+00
         vertex 3.115840e+01 -1.235155e+00 0.000000e+00
      endloop
   endfacet
   facet normal -0.000000e+00 -0.000000e+00 -1.000000e+00
      outer loop
         vertex 3.649100e+01 1.266042e+00 0.000000e+00
         vertex 4.447896e+01 1.026840e+00 0.000000e+00
         vertex 4.493716e+01 4.027566e-01 0.000000e+00
      endloop
   endfacet
   facet normal 0.000000e+00 0.000000e+00 -1.000000e+00
      outer loop
         vertex 1.292893e+00 -7.071068e-01 0.000000e+00
         vertex 6.710410e-01 -1.234083e+00 0.000000e+00
         vertex 8.359613e-02 -4.779040e-01 0.000000e+00
      endloop
   endfacet
   facet normal 0.000000e+00 0.000000e+00 -1.000000e+00
      outer loop
         vertex 7.331516e-02 4.795888e-01 0.000000e+00
         vertex 1.292893e+00 7.071068e-01 0.000000e+00
         vertex 1.000000e+00 -1.224647e-16 0.000000e+00
      endloop
   endfacet
   facet normal 0.000000e+00 0.000000e+00 -1.000000e+00
      outer loop
         vertex 2.468538e+01 -1.225501e+00 0.000000e+00
         vertex 4.493716e+01 4.027566e-01 0.000000e+00
         vertex 2.659644e+01 -1.228215e+00 0.000000e+00
      endloop
   endfacet
   facet normal 0.000000e+00 0.000000e+00 -1.000000e+00
      outer loop
         vertex 3.623940e+01 -1.234400e+00 0.000000e+00
         vertex 4.493992e+01 -3.714672e-01 0.000000e+00
         vertex 3.649991e+01 -1.233895e+00 0.000000e+00
      endloop
   endfacet
   facet normal 0.000000e+00 0.000000e+00 -1.000000e+00
      outer loop
         vertex 4.493716e+01 4.027566e-01 0.000000e+00
         vertex 2.484946e+01 1.469390e+00 0.000000e+00
         vertex 3.649100e+01 1.266042e+00 0.000000e+00
      endloop
   endfacet
   facet normal 0.000000e+00 0.000000e+00 -1.000000e+00
      outer loop
         vertex 3.000000e+00 -3.673940e-16 0.000000e+00
         vertex 1.322982e+01 -1.256519e+00 0.000000e+00
         vertex 2.707107e+00 -7.071068e-01 0.000000e+00
      endloop
   endfacet
   facet normal 0.000000e+00 -0.000000e+00 -1.000000e+00
      outer loop
         vertex 2.468538e+01 -1.225501e+00 0.000000e+00
         vertex 2.484946e+01 1.469390e+00 0.000000e+00
         vertex 4.493716e+01 4.027566e-01 0.000000e+00
      endloop
   endfacet
   facet normal 0.000000e+00 -0.000000e+00 1.000000e+00
      outer loop
         vertex 6.710410e-01 -1.234083e+00 3.000000e+00
         vertex 1.596260e+00 -1.480797e+00 3.000000e+00
         vertex 2.000000e+00 -1.000000e+00 3.000000e+00
      endloop
   endfacet
   facet normal 0.000000e+00 0.000000e+00 1.000000e+00
      outer loop
         vertex 1.322982e+01 -1.256519e+00 3.000000e+00
         vertex 2.086614e+01 -1.224104e+00 3.000000e+00
         vertex 3.000000e+00 -3.673940e-16 3.000000e+00
      endloop
   endfacet
   facet normal 0.000000e+00 -0.000000e+00 1.000000e+00
      outer loop
         vertex 2.468538e+01 -1.225501e+00 3.000000e+00
         vertex 2.659644e+01 -1.228215e+00 3.000000e+00
         vertex 4.493716e+01 4.027566e-01 3.000000e+00
      endloop
   endfacet
   facet normal 0.000000e+00 -0.000000e+00 1.000000e+00
      outer loop
         vertex 2.755434e+01 -1.229780e+00 3.000000e+00
         vertex 2.980244e+01 -1.233387e+00 3.000000e+00
         vertex 4.493992e+01 -3.714672e-01 3.000000e+00
      endloop
   endfacet
   facet normal 0.000000e+00 -0.000000e+00 1.000000e+00
      outer loop
         vertex 3.115840e+01 -1.235155e+00 3.000000e+00
         vertex 3.319117e+01 -1.236594e+00 3.000000e+00
         vertex 4.493992e+01 -3.714672e-01 3.000000e+00
      endloop
   endfacet
   facet normal 0.000000e+00 -0.000000e+00 1.000000e+00
      outer loop
         vertex 3.623940e+01 -1.234400e+00 3.000000e+00
         vertex 3.649991e+01 -1.233895e+00 3.000000e+00
         vertex 4.493992e+01 -3.714672e-01 3.000000e+00
      endloop
   endfacet
   facet normal 0.000000e+00 0.000000e+00 1.000000e+00
      outer loop
         vertex 4.375002e+01 -1.238579e+00 3.000000e+00
         vertex 4.448619e+01 -9.988039e-01 3.000000e+00
         vertex 3.649991e+01 -1.233895e+00 3.000000e+00
      endloop
   endfacet
   facet normal 0.000000e+00 0.000000e+00 1.000000e+00
      outer loop
         vertex 4.493716e+01 4.027566e-01 3.000000e+00
         vertex 4.447896e+01 1.026840e+00 3.000000e+00
         vertex 3.649100e+01 1.266042e+00 3.000000e+00
      endloop
   endfacet
   facet normal 0.000000e+00 0.000000e+00 1.000000e+00
      outer loop
         vertex 4.374110e+01 1.261358e+00 3.000000e+00
         vertex 3.649100e+01 1.266042e+00 3.000000e+00
         vertex 4.447896e+01 1.026840e+00 3.000000e+00
      endloop
   endfacet
   facet normal -0.000000e+00 0.000000e+00 1.000000e+00
      outer loop
         vertex 1.320698e+01 1.552285e+00 3.000000e+00
         vertex 1.564096e+00 1.514731e+00 3.000000e+00
         vertex 2.000000e+00 1.000000e+00 3.000000e+00
      endloop
   endfacet
   facet normal 0.000000e+00 0.000000e+00 1.000000e+00
      outer loop
         vertex 6.443876e-01 1.248207e+00 3.000000e+00
         vertex 7.331516e-02 4.795888e-01 3.000000e+00
         vertex 1.292893e+00 7.071068e-01 3.000000e+00
      endloop
   endfacet
   facet normal 0.000000e+00 -0.000000e+00 1.000000e+00
      outer loop
         vertex 8.359613e-02 -4.779040e-01 3.000000e+00
         vertex 6.710410e-01 -1.234083e+00 3.000000e+00
         vertex 1.292893e+00 -7.071068e-01 3.000000e+00
      endloop
   endfacet
   facet normal 0.000000e+00 -0.000000e+00 1.000000e+00
      outer loop
         vertex 2.000000e+00 1.000000e+00 3.000000e+00
         vertex 2.707107e+00 7.071068e-01 3.000000e+00
         vertex 1.320698e+01 1.552285e+00 3.000000e+00
      endloop
   endfacet
   facet normal -0.000000e+00 0.000000e+00 1.000000e+00
      outer loop
         vertex 3.000000e+00 -3.673940e-16 3.000000e+00
         vertex 2.707107e+00 -7.071068e-01 3.000000e+00
         vertex 1.322982e+01 -1.256519e+00 3.000000e+00
      endloop
   endfacet
   facet normal 0.000000e+00 0.000000e+00 1.000000e+00
      outer loop
         vertex 2.000000e+00 -1.000000e+00 3.000000e+00
         vertex 1.292893e+00 -7.071068e-01 3.000000e+00
         vertex 6.710410e-01 -1.234083e+00 3.000000e+00
      endloop
   endfacet
   facet normal 0.000000e+00 0.000000e+00 1.000000e+00
      outer loop
         vertex 1.000000e+00 -1.224647e-16 3.000000e+00
         vertex 1.292893e+00 7.071068e-01 3.000000e+00
         vertex 7.331516e-02 4.795888e-01 3.000000e+00
      endloop
   endfacet
   facet normal -0.000000e+00 -0.000000e+00 1.000000e+00
      outer loop
         vertex 3.000000e+00 -3.673940e-16 3.000000e+00
         vertex 2.086614e+01 -1.224104e+00 3.000000e+00
         vertex 2.468538e+01 -1.225501e+00 3.000000e+00
      endloop
   endfacet
   facet normal 0.000000e+00 0.000000e+00 1.000000e+00
      outer loop
         vertex 2.755434e+01 -1.229780e+00 3.000000e+00
         vertex 4.493992e+01 -3.714672e-01 3.000000e+00
         vertex 2.659644e+01 -1.228215e+00 3.000000e+00
      endloop
   endfacet
   facet normal 0.000000e+00 0.000000e+00 1.000000e+00
      outer loop
         vertex 4.493992e+01 -3.714672e-01 3.000000e+00
         vertex 3.319117e+01 -1.236594e+00 3.000000e+00
         vertex 3.623940e+01 -1.234400e+00 3.000000e+00
      endloop
   endfacet
   facet normal 0.000000e+00 0.000000e+00 1.000000e+00
      outer loop
         vertex 4.493716e+01 4.027566e-01 3.000000e+00
         vertex 3.649100e+01 1.266042e+00 3.000000e+00
         vertex 2.484946e+01 1.469390e+00 3.000000e+00
      endloop
   endfacet
   facet normal 0.000000e+00 0.000000e+00 1.000000e+00
      outer loop
         vertex 8.359613e-02 -4.779040e-01 3.000000e+00
         vertex 1.292893e+00 -7.071068e-01 3.000000e+00
         vertex 1.000000e+00 -1.224647e-16 3.000000e+00
      endloop
   endfacet
   facet normal 0.000000e+00 0.000000e+00 1.000000e+00
      outer loop
         vertex 1.000000e+00 -1.224647e-16 3.000000e+00
         vertex 7.331516e-02 4.795888e-01 3.000000e+00
         vertex 8.359613e-02 -4.779040e-01 3.000000e+00
      endloop
   endfacet
   facet normal 0.000000e+00 0.000000e+00 1.000000e+00
      outer loop
         vertex 4.493716e+01 4.027566e-01 3.000000e+00
         vertex 2.484946e+01 1.469390e+00 3.000000e+00
         vertex 2.468538e+01 -1.225501e+00 3.000000e+00
      endloop
   endfacet
   facet normal 0.000000e+00 0.000000e+00 1.000000e+00
      outer loop
         vertex 1.596260e+00 -1.480797e+00 3.000000e+00
         vertex 1.322982e+01 -1.256519e+00 3.000000e+00
         vertex 2.000000e+00 -1.000000e+00 3.000000e+00
      endloop
   endfacet
   facet normal 0.000000e+00 0.000000e+00 1.000000e+00
      outer loop
         vertex 4.448619e+01 -9.988039e-01 3.000000e+00
         vertex 4.493992e+01 -3.714672e-01 3.000000e+00
         vertex 3.649991e+01 -1.233895e+00 3.000000e+00
      endloop
   endfacet
   facet normal 0.000000e+00 0.000000e+00 1.000000e+00
      outer loop
         vertex 2.484946e+01 1.469390e+00 3.000000e+00
         vertex 1.320698e+01 1.552285e+00 3.000000e+00
         vertex 2.707107e+00 7.071068e-01 3.000000e+00
      endloop
   endfacet
   facet normal 0.000000e+00 0.000000e+00 1.000000e+00
      outer loop
         vertex 1.292893e+00 7.071068e-01 3.000000e+00
         vertex 2.000000e+00 1.000000e+00 3.000000e+00
         vertex 6.443876e-01 1.248207e+00 3.000000e+00
      endloop
   endfacet
   facet normal -0.000000e+00 0.000000e+00 1.000000e+00
      outer loop
         vertex 2.707107e+00 -7.071068e-01 3.000000e+00
         vertex 2.000000e+00 -1.000000e+00 3.000000e+00
         vertex 1.322982e+01 -1.256519e+00 3.000000e+00
      endloop
   endfacet
   facet normal -0.000000e+00 0.000000e+00 1.000000e+00
      outer loop
         vertex 4.493992e+01 -3.714672e-01 3.000000e+00
         vertex 2.980244e+01 -1.233387e+00 3.000000e+00
         vertex 3.115840e+01 -1.235155e+00 3.000000e+00
      endloop
   endfacet
   facet normal 0.000000e+00 0.000000e+00 1.000000e+00
      outer loop
         vertex 2.659644e+01 -1.228215e+00 3.000000e+00
         vertex 4.493992e+01 -3.714672e-01 3.000000e+00
         vertex 4.493716e+01 4.027566e-01 3.000000e+00
      endloop
   endfacet
   facet normal -0.000000e+00 0.000000e+00 1.000000e+00
      outer loop
         vertex 1.564096e+00 1.514731e+00 3.000000e+00
         vertex 6.443876e-01 1.248207e+00 3.000000e+00
         vertex 2.000000e+00 1.000000e+00 3.000000e+00
      endloop
   endfacet
   facet normal 0.000000e+00 -0.000000e+00 1.000000e+00
      outer loop
         vertex 3.000000e+00 -3.673940e-16 3.000000e+00
         vertex 2.468538e+01 -1.225501e+00 3.000000e+00
         vertex 2.484946e+01 1.469390e+00 3.000000e+00
      endloop
   endfacet
   facet normal 0.000000e+00 0.000000e+00 1.000000e+00
      outer loop
         vertex 3.000000e+00 -3.673940e-16 3.000000e+00
         vertex 2.484946e+01 1.469390e+00 3.000000e+00
         vertex 2.707107e+00 7.071068e-01 3.000000e+00
      endloop
   endfacet
   facet normal 3.826834e-01 -9.238795e-01 0.000000e+00
      outer loop
         vertex 1.292893e+00 7.071068e-01 0.000000e+00
         vertex 2.000000e+00 1.000000e+00 0.000000e+00
         vertex 2.000000e+00 1.000000e+00 3.000000e+00
      endloop
   endfacet
   facet normal 9.238796e-01 3.826834e-01 -0.000000e+00
      outer loop
         vertex 1.292893e+00 -7.071068e-01 3.000000e+00
         vertex 1.292893e+00 -7.071068e-01 0.000000e+00
         vertex 1.000000e+00 -1.224647e-16 0.000000e+00
      endloop
   endfacet
   facet normal -3.826834e-01 9.238795e-01 0.000000e+00
      outer loop
         vertex 2.707107e+00 -7.071068e-01 3.000000e+00
         vertex 2.707107e+00 -7.071068e-01 0.000000e+00
         vertex 2.000000e+00 -1.000000e+00 0.000000e+00
      endloop
   endfacet
   facet normal -9.238796e-01 -3.826834e-01 0.000000e+00
      outer loop
         vertex 2.707107e+00 7.071068e-01 3.000000e+00
         vertex 2.707107e+00 7.071068e-01 0.000000e+00
         vertex 3.000000e+00 -3.673940e-16 0.000000e+00
      endloop
   endfacet
   facet normal -3.826834e-01 -9.238795e-01 -0.000000e+00
      outer loop
         vertex 2.707107e+00 7.071068e-01 0.000000e+00
         vertex 2.000000e+00 1.000000e+00 3.000000e+00
         vertex 2.000000e+00 1.000000e+00 0.000000e+00
      endloop
   endfacet
   facet normal -9.238796e-01 3.826834e-01 0.000000e+00
      outer loop
         vertex 2.707107e+00 -7.071068e-01 0.000000e+00
         vertex 2.707107e+00 -7.071068e-01 3.000000e+00
         vertex 3.000000e+00 -3.673940e-16 3.000000e+00
      endloop
   endfacet
   facet normal 3.826834e-01 9.238795e-01 0.000000e+00
      outer loop
         vertex 1.292893e+00 -7.071068e-01 0.000000e+00
         vertex 1.292893e+00 -7.071068e-01 3.000000e+00
         vertex 2.000000e+00 -1.000000e+00 3.000000e+00
      endloop
   endfacet
   facet normal 9.238796e-01 -3.826834e-01 0.000000e+00
      outer loop
         vertex 1.292893e+00 7.071068e-01 0.000000e+00
         vertex 1.292893e+00 7.071068e-01 3.000000e+00
         vertex 1.000000e+00 -1.224647e-16 3.000000e+00
      endloop
   endfacet
   facet normal 3.826834e-01 -9.238795e-01 0.000000e+00
      outer loop
         vertex 1.292893e+00 7.071068e-01 3.000000e+00
         vertex 1.292893e+00 7.071068e-01 0.000000e+00
         vertex 2.000000e+00 1.000000e+00 3.000000e+00
      endloop
   endfacet
   facet normal -9.238796e-01 -3.826834e-01 0.000000e+00
      outer loop
         vertex 3.000000e+00 -3.673940e-16 3.000000e+00
         vertex 2.707107e+00 7.071068e-01 3.000000e+00
         vertex 3.000000e+00 -3.673940e-16 0.000000e+00
      endloop
   endfacet
   facet normal -9.238796e-01 3.826834e-01 0.000000e+00
      outer loop
         vertex 3.000000e+00 -3.673940e-16 0.000000e+00
         vertex 2.707107e+00 -7.071068e-01 0.000000e+00
         vertex 3.000000e+00 -3.673940e-16 3.000000e+00
      endloop
   endfacet
   facet normal 9.238796e-01 -3.826834e-01 0.000000e+00
      outer loop
         vertex 1.000000e+00 -1.224647e-16 3.000000e+00
         vertex 1.000000e+00 -1.224647e-16 0.000000e+00
         vertex 1.292893e+00 7.071068e-01 0.000000e+00
      endloop
   endfacet
   facet normal -3.826834e-01 -9.238795e-01 -0.000000e+00
      outer loop
         vertex 2.707107e+00 7.071068e-01 0.000000e+00
         vertex 2.707107e+00 7.071068e-01 3.000000e+00
         vertex 2.000000e+00 1.000000e+00 3.000000e+00
      endloop
   endfacet
   facet normal 9.238796e-01 3.826834e-01 0.000000e+00
      outer loop
         vertex 1.000000e+00 -1.224647e-16 0.000000e+00
         vertex 1.000000e+00 -1.224647e-16 3.000000e+00
         vertex 1.292893e+00 -7.071068e-01 3.000000e+00
      endloop
   endfacet
   facet normal 3.826834e-01 9.238795e-01 0.000000e+00
      outer loop
         vertex 2.000000e+00 -1.000000e+00 0.000000e+00
         vertex 1.292893e+00 -7.071068e-01 0.000000e+00
         vertex 2.000000e+00 -1.000000e+00 3.000000e+00
      endloop
   endfacet
   facet normal -3.826834e-01 9.238795e-01 0.000000e+00
      outer loop
         vertex 2.000000e+00 -1.000000e+00 0.000000e+00
         vertex 2.000000e+00 -1.000000e+00 3.000000e+00
         vertex 2.707107e+00 -7.071068e-01 3.000000e+00
      endloop
   endfacet
   facet normal -2.783403e-01 9.604825e-01 0.000000e+00
      outer loop
         vertex 1.564096e+00 1.514731e+00 3.000000e+00
         vertex 1.564096e+00 1.514731e+00 0.000000e+00
         vertex 6.443876e-01 1.248207e+00 0.000000e+00
      endloop
   endfacet
   facet normal -9.999424e-01 -1.073676e-02 0.000000e+00
      outer loop
         vertex 7.331516e-02 4.795888e-01 0.000000e+00
         vertex 8.359613e-02 -4.779040e-01 0.000000e+00
         vertex 8.359613e-02 -4.779040e-01 3.000000e+00
      endloop
   endfacet
   facet normal -2.576524e-01 -9.662377e-01 0.000000e+00
      outer loop
         vertex 6.710410e-01 -1.234083e+00 0.000000e+00
         vertex 1.596260e+00 -1.480797e+00 0.000000e+00
         vertex 1.596260e+00 -1.480797e+00 3.000000e+00
      endloop
   endfacet
   facet normal -7.897035e-01 -6.134887e-01 -0.000000e+00
      outer loop
         vertex 6.710410e-01 -1.234083e+00 3.000000e+00
         vertex 8.359613e-02 -4.779040e-01 3.000000e+00
         vertex 8.359613e-02 -4.779040e-01 0.000000e+00
      endloop
   endfacet
   facet normal -8.026945e-01 5.963905e-01 0.000000e+00
      outer loop
         vertex 7.331516e-02 4.795888e-01 3.000000e+00
         vertex 6.443876e-01 1.248207e+00 3.000000e+00
         vertex 6.443876e-01 1.248207e+00 0.000000e+00
      endloop
   endfacet
   facet normal -2.783403e-01 9.604825e-01 0.000000e+00
      outer loop
         vertex 1.564096e+00 1.514731e+00 3.000000e+00
         vertex 6.443876e-01 1.248207e+00 0.000000e+00
         vertex 6.443876e-01 1.248207e+00 3.000000e+00
      endloop
   endfacet
   facet normal -7.897035e-01 -6.134887e-01 0.000000e+00
      outer loop
         vertex 6.710410e-01 -1.234083e+00 3.000000e+00
         vertex 8.359613e-02 -4.779040e-01 0.000000e+00
         vertex 6.710410e-01 -1.234083e+00 0.000000e+00
      endloop
   endfacet
   facet normal -8.026945e-01 5.963905e-01 0.000000e+00
      outer loop
         vertex 6.443876e-01 1.248207e+00 0.000000e+00
         vertex 7.331516e-02 4.795888e-01 0.000000e+00
         vertex 7.331516e-02 4.795888e-01 3.000000e+00
      endloop
   endfacet
   facet normal -9.999424e-01 -1.073676e-02 -0.000000e+00
      outer loop
         vertex 8.359613e-02 -4.779040e-01 3.000000e+00
         vertex 7.331516e-02 4.795888e-01 3.000000e+00
         vertex 7.331516e-02 4.795888e-01 0.000000e+00
      endloop
   endfacet
   facet normal -2.576524e-01 -9.662377e-01 0.000000e+00
      outer loop
         vertex 6.710410e-01 -1.234083e+00 3.000000e+00
         vertex 6.710410e-01 -1.234083e+00 0.000000e+00
         vertex 1.596260e+00 -1.480797e+00 3.000000e+00
      endloop
   endfacet
   facet normal 1.746485e-02 9.998475e-01 -0.000000e+00
      outer loop
         vertex 3.649100e+01 1.266042e+00 3.000000e+00
         vertex 3.649100e+01 1.266042e+00 0.000000e+00
         vertex 2.484946e+01 1.469390e+00 0.000000e+00
      endloop
   endfacet
   facet normal -3.225474e-03 9.999948e-01 0.000000e+00
      outer loop
         vertex 1.320698e+01 1.552285e+00 0.000000e+00
         vertex 1.564096e+00 1.514731e+00 0.000000e+00
         vertex 1.564096e+00 1.514731e+00 3.000000e+00
      endloop
   endfacet
   facet normal 7.119883e-03 9.999747e-01 0.000000e+00
      outer loop
         vertex 1.320698e+01 1.552285e+00 3.000000e+00
         vertex 2.484946e+01 1.469390e+00 3.000000e+00
         vertex 2.484946e+01 1.469390e+00 0.000000e+00
      endloop
   endfacet
   facet normal 1.746485e-02 9.998475e-01 -0.000000e+00
      outer loop
         vertex 3.649100e+01 1.266042e+00 3.000000e+00
         vertex 2.484946e+01 1.469390e+00 0.000000e+00
         vertex 2.484946e+01 1.469390e+00 3.000000e+00
      endloop
   endfacet
   facet normal 7.119883e-03 9.999747e-01 -0.000000e+00
      outer loop
         vertex 2.484946e+01 1.469390e+00 0.000000e+00
         vertex 1.320698e+01 1.552285e+00 0.000000e+00
         vertex 1.320698e+01 1.552285e+00 3.000000e+00
      endloop
   endfacet
   facet normal -3.225474e-03 9.999948e-01 0.000000e+00
      outer loop
         vertex 1.320698e+01 1.552285e+00 0.000000e+00
         vertex 1.564096e+00 1.514731e+00 3.000000e+00
         vertex 1.320698e+01 1.552285e+00 3.000000e+00
      endloop
   endfacet
   facet normal 6.460554e-04 9.999998e-01 -0.000000e+00
      outer loop
         vertex 4.374110e+01 1.261358e+00 3.000000e+00
         vertex 4.374110e+01 1.261358e+00 0.000000e+00
         vertex 3.649100e+01 1.266042e+00 0.000000e+00
      endloop
   endfacet
   facet normal 6.460554e-04 9.999998e-01 0.000000e+00
      outer loop
         vertex 3.649100e+01 1.266042e+00 3.000000e+00
         vertex 4.374110e+01 1.261358e+00 3.000000e+00
         vertex 3.649100e+01 1.266042e+00 0.000000e+00
      endloop
   endfacet
   facet normal 3.096939e-01 -9.508363e-01 0.000000e+00
      outer loop
         vertex 4.375002e+01 -1.238579e+00 3.000000e+00
         vertex 4.375002e+01 -1.238579e+00 0.000000e+00
         vertex 4.448619e+01 -9.988039e-01 0.000000e+00
      endloop
   endfacet
   facet normal 9.999936e-01 3.567216e-03 -0.000000e+00
      outer loop
         vertex 4.493992e+01 -3.714672e-01 0.000000e+00
         vertex 4.493716e+01 4.027566e-01 0.000000e+00
         vertex 4.493716e+01 4.027566e-01 3.000000e+00
      endloop
   endfacet
   facet normal 3.029050e-01 9.530208e-01 -0.000000e+00
      outer loop
         vertex 4.447896e+01 1.026840e+00 0.000000e+00
         vertex 4.374110e+01 1.261358e+00 0.000000e+00
         vertex 4.374110e+01 1.261358e+00 3.000000e+00
      endloop
   endfacet
   facet normal 8.060717e-01 5.918179e-01 0.000000e+00
      outer loop
         vertex 4.447896e+01 1.026840e+00 3.000000e+00
         vertex 4.493716e+01 4.027566e-01 3.000000e+00
         vertex 4.493716e+01 4.027566e-01 0.000000e+00
      endloop
   endfacet
   facet normal 8.102751e-01 -5.860497e-01 0.000000e+00
      outer loop
         vertex 4.493992e+01 -3.714672e-01 3.000000e+00
         vertex 4.448619e+01 -9.988039e-01 3.000000e+00
         vertex 4.448619e+01 -9.988039e-01 0.000000e+00
      endloop
   endfacet
   facet normal 3.096939e-01 -9.508363e-01 0.000000e+00
      outer loop
         vertex 4.375002e+01 -1.238579e+00 3.000000e+00
         vertex 4.448619e+01 -9.988039e-01 0.000000e+00
         vertex 4.448619e+01 -9.988039e-01 3.000000e+00
      endloop
   endfacet
   facet normal 8.060717e-01 5.918179e-01 0.000000e+00
      outer loop
         vertex 4.447896e+01 1.026840e+00 3.000000e+00
         vertex 4.493716e+01 4.027566e-01 0.000000e+00
         vertex 4.447896e+01 1.026840e+00 0.000000e+00
      endloop
   endfacet
   facet normal 8.102751e-01 -5.860497e-01 0.000000e+00
      outer loop
         vertex 4.448619e+01 -9.988039e-01 0.000000e+00
         vertex 4.493992e+01 -3.714672e-01 0.000000e+00
         vertex 4.493992e+01 -3.714672e-01 3.000000e+00
      endloop
   endfacet
   facet normal 9.999936e-01 3.567216e-03 0.000000e+00
      outer loop
         vertex 4.493716e+01 4.027566e-01 3.000000e+00
         vertex 4.493992e+01 -3.714672e-01 3.000000e+00
         vertex 4.493992e+01 -3.714672e-01 0.000000e+00
      endloop
   endfacet
   facet normal 3.029050e-01 9.530208e-01 -0.000000e+00
      outer loop
         vertex 4.447896e+01 1.026840e+00 3.000000e+00
         vertex 4.447896e+01 1.026840e+00 0.000000e+00
         vertex 4.374110e+01 1.261358e+00 3.000000e+00
      endloop
   endfacet
   facet normal -6.460554e-04 -9.999998e-01 0.000000e+00
      outer loop
         vertex 3.649991e+01 -1.233895e+00 3.000000e+00
         vertex 3.649991e+01 -1.233895e+00 0.000000e+00
         vertex 4.375002e+01 -1.238579e+00 0.000000e+00
      endloop
   endfacet
   facet normal -6.460554e-04 -9.999998e-01 0.000000e+00
      outer loop
         vertex 4.375002e+01 -1.238579e+00 3.000000e+00
         vertex 3.649991e+01 -1.233895e+00 3.000000e+00
         vertex 4.375002e+01 -1.238579e+00 0.000000e+00
      endloop
   endfacet
   facet normal 1.927502e-02 -9.998142e-01 0.000000e+00
      outer loop
         vertex 1.596260e+00 -1.480797e+00 3.000000e+00
         vertex 1.596260e+00 -1.480797e+00 0.000000e+00
         vertex 1.322982e+01 -1.256519e+00 0.000000e+00
      endloop
   endfacet
   facet normal -3.658145e-04 -9.999999e-01 0.000000e+00
      outer loop
         vertex 2.086614e+01 -1.224104e+00 0.000000e+00
         vertex 2.468538e+01 -1.225501e+00 0.000000e+00
         vertex 2.468538e+01 -1.225501e+00 3.000000e+00
      endloop
   endfacet
   facet normal -1.633875e-03 -9.999987e-01 0.000000e+00
      outer loop
         vertex 2.659644e+01 -1.228215e+00 0.000000e+00
         vertex 2.755434e+01 -1.229780e+00 0.000000e+00
         vertex 2.755434e+01 -1.229780e+00 3.000000e+00
      endloop
   endfacet
   facet normal -1.303516e-03 -9.999992e-01 0.000000e+00
      outer loop
         vertex 2.980244e+01 -1.233387e+00 0.000000e+00
         vertex 3.115840e+01 -1.235155e+00 0.000000e+00
         vertex 3.115840e+01 -1.235155e+00 3.000000e+00
      endloop
   endfacet
   facet normal 7.197765e-04 -9.999997e-01 0.000000e+00
      outer loop
         vertex 3.319117e+01 -1.236594e+00 0.000000e+00
         vertex 3.623940e+01 -1.234400e+00 0.000000e+00
         vertex 3.623940e+01 -1.234400e+00 3.000000e+00
      endloop
   endfacet
   facet normal 1.938822e-03 -9.999981e-01 0.000000e+00
      outer loop
         vertex 3.649991e+01 -1.233895e+00 0.000000e+00
         vertex 3.649991e+01 -1.233895e+00 3.000000e+00
         vertex 3.623940e+01 -1.234400e+00 0.000000e+00
      endloop
   endfacet
   facet normal -7.078907e-04 -9.999997e-01 -0.000000e+00
      outer loop
         vertex 3.319117e+01 -1.236594e+00 3.000000e+00
         vertex 3.115840e+01 -1.235155e+00 3.000000e+00
         vertex 3.115840e+01 -1.235155e+00 0.000000e+00
      endloop
   endfacet
   facet normal -1.604852e-03 -9.999987e-01 -0.000000e+00
      outer loop
         vertex 2.980244e+01 -1.233387e+00 3.000000e+00
         vertex 2.755434e+01 -1.229780e+00 3.000000e+00
         vertex 2.755434e+01 -1.229780e+00 0.000000e+00
      endloop
   endfacet
   facet normal -1.419795e-03 -9.999990e-01 -0.000000e+00
      outer loop
         vertex 2.659644e+01 -1.228215e+00 3.000000e+00
         vertex 2.468538e+01 -1.225501e+00 3.000000e+00
         vertex 2.468538e+01 -1.225501e+00 0.000000e+00
      endloop
   endfacet
   facet normal 4.244752e-03 -9.999910e-01 0.000000e+00
      outer loop
         vertex 2.086614e+01 -1.224104e+00 3.000000e+00
         vertex 1.322982e+01 -1.256519e+00 3.000000e+00
         vertex 1.322982e+01 -1.256519e+00 0.000000e+00
      endloop
   endfacet
   facet normal 1.927502e-02 -9.998142e-01 0.000000e+00
      outer loop
         vertex 1.596260e+00 -1.480797e+00 3.000000e+00
         vertex 1.322982e+01 -1.256519e+00 0.000000e+00
         vertex 1.322982e+01 -1.256519e+00 3.000000e+00
      endloop
   endfacet
   facet normal -1.303516e-03 -9.999992e-01 0.000000e+00
      outer loop
         vertex 2.980244e+01 -1.233387e+00 0.000000e+00
         vertex 3.115840e+01 -1.235155e+00 3.000000e+00
         vertex 2.980244e+01 -1.233387e+00 3.000000e+00
      endloop
   endfacet
   facet normal 1.938822e-03 -9.999981e-01 0.000000e+00
      outer loop
         vertex 3.623940e+01 -1.234400e+00 0.000000e+00
         vertex 3.649991e+01 -1.233895e+00 3.000000e+00
         vertex 3.623940e+01 -1.234400e+00 3.000000e+00
      endloop
   endfacet
   facet normal 4.244752e-03 -9.999910e-01 0.000000e+00
      outer loop
         vertex 2.086614e+01 -1.224104e+00 3.000000e+00
         vertex 1.322982e+01 -1.256519e+00 0.000000e+00
         vertex 2.086614e+01 -1.224104e+00 0.000000e+00
      endloop
   endfacet
   facet normal -1.419795e-03 -9.999990e-01 0.000000e+00
      outer loop
         vertex 2.468538e+01 -1.225501e+00 0.000000e+00
         vertex 2.659644e+01 -1.228215e+00 0.000000e+00
         vertex 2.659644e+01 -1.228215e+00 3.000000e+00
      endloop
   endfacet
   facet normal -7.078907e-04 -9.999997e-01 0.000000e+00
      outer loop
         vertex 3.115840e+01 -1.235155e+00 0.000000e+00
         vertex 3.319117e+01 -1.236594e+00 0.000000e+00
         vertex 3.319117e+01 -1.236594e+00 3.000000e+00
      endloop
   endfacet
   facet normal -1.633875e-03 -9.999987e-01 -0.000000e+00
      outer loop
         vertex 2.755434e+01 -1.229780e+00 3.000000e+00
         vertex 2.659644e+01 -1.228215e+00 3.000000e+00
         vertex 2.659644e+01 -1.228215e+00 0.000000e+00
      endloop
   endfacet
   facet normal -3.658145e-04 -9.999999e-01 0.000000e+00
      outer loop
         vertex 2.086614e+01 -1.224104e+00 0.000000e+00
         vertex 2.468538e+01 -1.225501e+00 3.000000e+00
         vertex 2.086614e+01 -1.224104e+00 3.000000e+00
      endloop
   endfacet
   facet normal -1.604852e-03 -9.999987e-01 -0.000000e+00
      outer loop
         vertex 2.980244e+01 -1.233387e+00 0.000000e+00
         vertex 2.980244e+01 -1.233387e+00 3.000000e+00
         vertex 2.755434e+01 -1.229780e+00 0.000000e+00
      endloop
   endfacet
   facet normal 7.197765e-04 -9.999997e-01 0.000000e+00
      outer loop
         vertex 3.623940e+01 -1.234400e+00 3.000000e+00
         vertex 3.319117e+01 -1.236594e+00 3.000000e+00
         vertex 3.319117e+01 -1.236594e+00 0.000000e+00
      endloop
   endfacet
endsolid
